<svg width="38" height="41" viewBox="0 0 38 41" fill="none" xmlns="http://www.w3.org/2000/svg">
<path d="M20.661 11.891V6.45598C20.661 5.34198 19.431 5.16798 18.561 5.32898C18.2672 5.37873 18.0035 5.53888 17.824 5.77664C17.6444 6.0144 17.5625 6.31179 17.595 6.60797V11.891C17.596 12.0532 17.6609 12.2085 17.7757 12.3233C17.8904 12.438 18.0457 12.5029 18.208 12.504H20.047C20.2096 12.504 20.3655 12.4394 20.4804 12.3244C20.5954 12.2095 20.661 12.0536 20.661 11.891C20.661 11.7284 20.5954 11.5725 20.4804 11.4575C20.3655 11.3426 20.2096 11.278 20.047 11.278H18.208C18.414 11.484 18.62 11.69 18.825 11.891V6.45598C18.825 6.40698 18.771 6.52797 18.718 6.54997C18.7821 6.52647 18.8497 6.5143 18.918 6.51398C19.0982 6.49591 19.2799 6.50027 19.459 6.52698C19.625 6.55798 19.468 6.52697 19.432 6.42697C19.432 6.43597 19.432 6.44898 19.432 6.46298V11.89C19.4409 12.047 19.5096 12.1947 19.624 12.3027C19.7383 12.4107 19.8897 12.4709 20.047 12.4709C20.2043 12.4709 20.3556 12.4107 20.47 12.3027C20.5843 12.1947 20.653 12.047 20.662 11.89" fill="#767676"/>
<mask id="mask0_44_83" style="mask-type:luminance" maskUnits="userSpaceOnUse" x="17" y="0" width="5" height="6">
<path d="M17.238 0.594971H21.819V5.67697H17.238V0.594971Z" fill="white"/>
</mask>
<g mask="url(#mask0_44_83)">
<path d="M18.678 1.19393C18.1907 1.72428 17.8083 2.3422 17.551 3.01495C17.4609 3.24518 17.4192 3.4915 17.4285 3.73857C17.4378 3.98563 17.4979 4.22812 17.605 4.45094C17.773 4.72201 18.0118 4.942 18.2958 5.08706C18.5797 5.23213 18.898 5.29674 19.216 5.27394C19.5055 5.2614 19.7878 5.18026 20.0398 5.03717C20.2917 4.89407 20.506 4.69313 20.665 4.45094C20.7692 4.23076 20.8262 3.99125 20.8324 3.74775C20.8386 3.50425 20.7939 3.26213 20.701 3.03694C20.4417 2.35251 20.0495 1.72615 19.547 1.19393C19.019 0.598934 18.147 1.47094 18.679 2.05694C18.9519 2.36663 19.1868 2.7077 19.379 3.07295C19.4421 3.18554 19.4947 3.3037 19.536 3.42594C19.5938 3.5469 19.6157 3.68191 19.599 3.81494C19.599 3.68994 19.59 3.85094 19.581 3.87794C19.599 3.82394 19.599 3.85595 19.563 3.89595C19.4504 3.99144 19.309 4.04638 19.1614 4.052C19.0138 4.05762 18.8686 4.01358 18.749 3.92694C18.649 3.86894 18.682 3.87794 18.66 3.81494C18.6491 3.74235 18.6491 3.66853 18.66 3.59594C18.6907 3.44783 18.7387 3.30383 18.803 3.16694C18.9482 2.87035 19.122 2.58867 19.322 2.32594C19.335 2.31294 19.447 2.16894 19.349 2.28994C19.385 2.24994 19.416 2.20494 19.449 2.16494C19.482 2.12494 19.507 2.09295 19.538 2.05795C20.061 1.47195 19.198 0.599941 18.67 1.19494" fill="#767676"/>
</g>
<path d="M26.705 11.891V6.45598C26.705 5.34198 25.475 5.16798 24.605 5.32898C24.3113 5.37873 24.0476 5.53888 23.868 5.77664C23.6885 6.0144 23.6066 6.31179 23.6391 6.60797V11.891C23.6411 12.0536 23.7069 12.2089 23.8223 12.3235C23.9377 12.4382 24.0934 12.5029 24.256 12.504H26.095C26.2576 12.504 26.4135 12.4394 26.5285 12.3244C26.6435 12.2095 26.7081 12.0536 26.7081 11.891C26.7081 11.7284 26.6435 11.5725 26.5285 11.4575C26.4135 11.3426 26.2576 11.278 26.095 11.278H24.25C24.456 11.484 24.6571 11.69 24.8631 11.891V6.45598C24.8631 6.40698 24.814 6.52797 24.756 6.54997C24.8203 6.52696 24.8879 6.5148 24.9561 6.51398C25.1362 6.49597 25.3179 6.50033 25.4971 6.52698C25.6631 6.55798 25.506 6.52697 25.47 6.42697V11.889C25.479 12.046 25.5477 12.1937 25.6621 12.3017C25.7764 12.4097 25.9278 12.4699 26.0851 12.4699C26.2424 12.4699 26.3937 12.4097 26.508 12.3017C26.6224 12.1937 26.6911 12.046 26.7 11.889" fill="#767676"/>
<mask id="mask1_44_83" style="mask-type:luminance" maskUnits="userSpaceOnUse" x="22" y="0" width="6" height="6">
<path d="M22.965 0.594971H27.546V5.67697H22.965V0.594971Z" fill="white"/>
</mask>
<g mask="url(#mask1_44_83)">
<path d="M24.718 1.19393C24.2317 1.72438 23.8507 2.34234 23.595 3.01495C23.5053 3.2451 23.4633 3.49111 23.4718 3.73799C23.4802 3.98486 23.5388 4.22743 23.644 4.45094C23.8128 4.7221 24.0524 4.94205 24.337 5.08708C24.6216 5.2321 24.9404 5.29671 25.259 5.27394C25.5483 5.26084 25.8304 5.17946 26.0823 5.03642C26.3341 4.89337 26.5485 4.69274 26.708 4.45094C26.81 4.23015 26.8659 3.99082 26.8721 3.74766C26.8783 3.5045 26.8347 3.26263 26.744 3.03694C26.4829 2.35336 26.0909 1.72731 25.59 1.19393C25.062 0.598934 24.19 1.47094 24.718 2.05694C24.9937 2.36437 25.2289 2.70581 25.418 3.07295C25.4847 3.18366 25.5374 3.30223 25.575 3.42594C25.6317 3.54727 25.6549 3.68161 25.642 3.81494C25.642 3.68994 25.633 3.85094 25.624 3.87794C25.637 3.82394 25.637 3.85595 25.606 3.89595C25.483 3.9802 25.3418 4.03401 25.194 4.05294C25.0529 4.04222 24.9161 3.99947 24.794 3.92794C24.694 3.86994 24.722 3.87894 24.705 3.81594C24.6959 3.74322 24.6959 3.66967 24.705 3.59695C24.7391 3.44916 24.7888 3.30537 24.853 3.16795C24.9964 2.87043 25.1704 2.58859 25.372 2.32694C25.385 2.31394 25.493 2.16993 25.399 2.29093L25.499 2.16593L25.593 2.05894C26.116 1.47294 25.249 0.600948 24.721 1.19595" fill="#767676"/>
</g>
<path d="M14.447 11.891V6.45598C14.447 5.34198 13.217 5.16798 12.347 5.32898C12.0536 5.37963 11.7906 5.53999 11.6112 5.77753C11.4318 6.01506 11.3495 6.31197 11.381 6.60797V11.891C11.3831 12.0536 11.4489 12.2089 11.5642 12.3235C11.6796 12.4382 11.8354 12.5029 11.998 12.504H13.837C13.9996 12.504 14.1555 12.4394 14.2704 12.3244C14.3854 12.2095 14.45 12.0536 14.45 11.891C14.45 11.7284 14.3854 11.5725 14.2704 11.4575C14.1555 11.3426 13.9996 11.278 13.837 11.278H11.995C12.201 11.484 12.402 11.69 12.608 11.891V6.45598C12.608 6.40698 12.559 6.52797 12.501 6.54997C12.5652 6.52696 12.6328 6.5148 12.701 6.51398C12.8812 6.49597 13.0629 6.50033 13.242 6.52698C13.408 6.55798 13.251 6.52697 13.215 6.42697V11.889C13.2239 12.046 13.2926 12.1937 13.407 12.3017C13.5213 12.4097 13.6727 12.4699 13.83 12.4699C13.9873 12.4699 14.1386 12.4097 14.253 12.3017C14.3673 12.1937 14.436 12.046 14.445 11.889" fill="#767676"/>
<mask id="mask2_44_83" style="mask-type:luminance" maskUnits="userSpaceOnUse" x="10" y="0" width="5" height="6">
<path d="M10.3671 0.594971H14.9481V5.67697H10.3671V0.594971Z" fill="white"/>
</mask>
<g mask="url(#mask2_44_83)">
<path d="M12.46 1.19393C11.9738 1.72438 11.5927 2.34234 11.337 3.01495C11.2473 3.2451 11.2054 3.49111 11.2138 3.73799C11.2223 3.98486 11.2808 4.22743 11.386 4.45094C11.5549 4.7221 11.7945 4.94205 12.0791 5.08708C12.3637 5.2321 12.6824 5.29671 13.001 5.27394C13.2904 5.26084 13.5725 5.17946 13.8243 5.03642C14.0762 4.89337 14.2906 4.69274 14.45 4.45094C14.5521 4.23015 14.608 3.99082 14.6142 3.74766C14.6203 3.5045 14.5767 3.26263 14.486 3.03694C14.225 2.35336 13.833 1.72731 13.332 1.19393C12.804 0.598934 11.932 1.47094 12.46 2.05694C12.7357 2.36437 12.971 2.70581 13.16 3.07295C13.2261 3.18458 13.28 3.30291 13.321 3.42594C13.3746 3.54819 13.3963 3.68203 13.384 3.81494C13.384 3.68994 13.375 3.85094 13.366 3.87794C13.379 3.82394 13.379 3.85595 13.348 3.89595C13.2251 3.98017 13.0839 4.03398 12.936 4.05294C12.7949 4.04222 12.6581 3.99947 12.536 3.92794C12.436 3.86994 12.464 3.87894 12.447 3.81594C12.438 3.74322 12.438 3.66967 12.447 3.59695C12.4812 3.44917 12.5308 3.30538 12.595 3.16795C12.7385 2.87044 12.9124 2.58859 13.114 2.32694C13.127 2.31394 13.235 2.16993 13.141 2.29093L13.241 2.16593L13.335 2.05894C13.858 1.47294 12.995 0.600948 12.463 1.19595" fill="#767676"/>
</g>
<mask id="mask3_44_83" style="mask-type:luminance" maskUnits="userSpaceOnUse" x="0" y="19" width="38" height="22">
<path d="M0.310059 19.306H37.9201V40.958H0.310059V19.306Z" fill="white"/>
</mask>
<g mask="url(#mask3_44_83)">
<path d="M4.81506 19.425C3.08806 20.181 1.11506 21.291 0.476058 23.187C0.317601 23.8927 0.270706 24.6188 0.337066 25.339V32.649C0.295935 33.2809 0.324431 33.9154 0.422058 34.541C0.779478 35.6763 1.53572 36.6439 2.55106 37.265C3.89878 38.1675 5.37981 38.8528 6.94006 39.296C8.96342 39.9115 11.0387 40.3413 13.1401 40.58C17.9327 41.1853 22.7894 41.0616 27.5451 40.213C29.4523 39.8893 31.3195 39.363 33.1151 38.643C34.4808 38.1391 35.729 37.3611 36.7831 36.357C37.4824 35.6816 37.8916 34.7607 37.9241 33.789V24.502C37.9564 23.7669 37.7833 23.0372 37.4241 22.395C36.4312 21.0234 35.0439 19.987 33.4471 19.424C33.3056 19.3453 33.1393 19.3241 32.9827 19.3649C32.826 19.4057 32.6911 19.5053 32.6061 19.643C32.5649 19.7125 32.5379 19.7895 32.5266 19.8695C32.5153 19.9495 32.52 20.0309 32.5404 20.1091C32.5607 20.1873 32.5964 20.2607 32.6452 20.325C32.6941 20.3894 32.7552 20.4434 32.8251 20.484C33.8342 20.8855 34.7735 21.4441 35.6081 22.139C36.1798 22.5792 36.5661 23.2174 36.6911 23.928C36.7451 24.55 36.6911 25.194 36.6911 25.82V33.801C36.6908 34.0946 36.6266 34.3847 36.5031 34.651C35.8996 35.6515 35.0011 36.4406 33.9311 36.91C32.3545 37.709 30.6808 38.3 28.9521 38.668C26.7595 39.1717 24.5282 39.4888 22.2821 39.616C17.6124 39.9724 12.9158 39.5736 8.37306 38.435C6.74128 38.0353 5.17461 37.4057 3.72006 36.565C3.19823 36.2573 2.7211 35.8795 2.30206 35.442C1.99856 35.1223 1.77064 34.7385 1.63507 34.319C1.5706 34.106 1.54618 33.8829 1.56306 33.661V25.336C1.49813 24.6683 1.55127 23.9943 1.72006 23.345C2.00973 22.743 2.45038 22.2262 2.99907 21.845C3.74911 21.2865 4.56865 20.828 5.43706 20.481C5.50691 20.4404 5.56804 20.3864 5.6169 20.322C5.66576 20.2577 5.7014 20.1843 5.72176 20.1061C5.74212 20.0279 5.74679 19.9465 5.73552 19.8665C5.72424 19.7865 5.69724 19.7095 5.65607 19.64C5.57099 19.5023 5.4361 19.4027 5.27946 19.3619C5.12283 19.3211 4.95649 19.3423 4.81506 19.421" fill="#767676"/>
</g>
<path d="M17.7261 7.00499C17.0191 7.04099 16.3171 7.117 15.6141 7.193C15.4519 7.19554 15.2971 7.26081 15.182 7.37511C15.067 7.48941 15.0007 7.64385 14.9971 7.80599C14.9984 7.96885 15.064 8.12461 15.1795 8.2394C15.295 8.35419 15.4512 8.41874 15.6141 8.41899C16.3141 8.34299 17.0141 8.26699 17.7261 8.23099C18.5181 8.18599 18.5261 6.95999 17.7261 7.00499Z" fill="#767676"/>
<path d="M22.383 7.16699C21.605 7.08599 20.826 7.00999 20.048 6.98399C19.27 6.95799 19.256 8.18399 20.048 8.20999C20.84 8.23599 21.605 8.30999 22.383 8.39299C22.5456 8.39299 22.7015 8.3284 22.8164 8.21344C22.9314 8.09848 22.996 7.94256 22.996 7.77998C22.996 7.6174 22.9314 7.46148 22.8164 7.34652C22.7015 7.23156 22.5456 7.16699 22.383 7.16699Z" fill="#767676"/>
<path d="M10.0221 8.15094C8.20606 8.70094 6.10305 9.48395 5.00305 11.1259C4.6002 11.8808 4.44224 12.7423 4.55106 13.5909V20.0109C4.585 20.526 4.73651 21.0264 4.99393 21.4738C5.25135 21.9213 5.60784 22.3037 6.03606 22.592C7.40994 23.5663 8.96208 24.2608 10.6041 24.6359C15.2 25.7873 19.9818 25.9941 24.6601 25.2439C26.6216 24.9844 28.539 24.4606 30.3601 23.687C31.6235 23.2285 32.6974 22.3609 33.4111 21.2219C33.6838 20.5255 33.7836 19.7734 33.7021 19.03V13.219C33.7177 12.8288 33.6996 12.438 33.6481 12.051C33.3806 11.1215 32.7739 10.3263 31.9481 9.82295C30.8031 9.05642 29.5375 8.48782 28.2041 8.14095C28.0493 8.10311 27.8858 8.12704 27.7484 8.20766C27.6109 8.28828 27.5103 8.41927 27.4677 8.57285C27.4252 8.72642 27.4442 8.89051 27.5206 9.03035C27.597 9.17019 27.7248 9.27478 27.8771 9.32195C28.9261 9.61687 29.9339 10.0422 30.8771 10.588C31.5003 10.91 32.014 11.4097 32.3531 12.0239C32.5183 12.7227 32.5593 13.445 32.4741 14.1579V18.0369C32.4741 18.7569 32.5191 19.4949 32.4651 20.2159C32.4741 20.0949 32.4291 20.377 32.4111 20.431C32.3931 20.485 32.3751 20.538 32.3571 20.592C32.4021 20.471 32.3261 20.646 32.3211 20.655C32.2157 20.8752 32.0702 21.0739 31.8921 21.241C31.4357 21.6909 30.9083 22.0626 30.3311 22.3409C28.6443 23.1522 26.8424 23.6983 24.9891 23.9599C22.5989 24.3518 20.175 24.4986 17.7551 24.398C15.4914 24.3414 13.2409 24.0339 11.0451 23.4809C9.48811 23.1593 8.01686 22.5118 6.72806 21.5809C6.51257 21.4052 6.31464 21.2089 6.13705 20.995C6.02966 20.8327 5.93536 20.6622 5.85506 20.4849C5.77968 20.2667 5.75372 20.0344 5.77905 19.8049V13.1259C5.7007 12.5864 5.83912 12.0378 6.16406 11.5999C7.30982 10.4555 8.76279 9.66767 10.3471 9.33194C10.4993 9.28478 10.6271 9.1802 10.7036 9.04036C10.78 8.90052 10.7989 8.73642 10.7564 8.58284C10.7139 8.42927 10.6132 8.29828 10.4758 8.21765C10.3383 8.13703 10.1749 8.1131 10.0201 8.15094" fill="#767676"/>
<path d="M15.467 17.756C19.7031 18.2199 23.9886 17.8923 28.105 16.79C29.534 16.4268 30.8857 15.8085 32.095 14.965C32.5478 14.6794 32.9284 14.293 33.207 13.8358C33.4856 13.3787 33.6547 12.8633 33.701 12.33C33.701 12.1674 33.6364 12.0115 33.5215 11.8965C33.4065 11.7816 33.2506 11.717 33.088 11.717C32.9254 11.717 32.7695 11.7816 32.6545 11.8965C32.5396 12.0115 32.475 12.1674 32.475 12.33C32.4595 12.6635 32.3407 12.984 32.135 13.247C31.8554 13.5931 31.5234 13.8934 31.151 14.137C29.9743 14.8802 28.6814 15.421 27.326 15.737C23.4513 16.7043 19.4355 16.9752 15.466 16.537C14.674 16.461 14.683 17.691 15.466 17.763" fill="#767676"/>
<path d="M11.8341 17.2099C12.4421 17.3349 13.0511 17.4469 13.6641 17.5369C13.8211 17.577 13.9875 17.5547 14.1285 17.4747C14.2694 17.3947 14.3739 17.2633 14.4201 17.1079C14.4627 16.9513 14.4415 16.7842 14.361 16.6433C14.2806 16.5023 14.1476 16.399 13.9911 16.3559C13.3781 16.2619 12.7701 16.1559 12.1611 16.0289C11.3871 15.8629 11.0611 17.0489 11.8341 17.2099Z" fill="#767676"/>
<path d="M4.55103 12.33C4.60503 14.674 7.42803 15.869 9.28903 16.517C10.041 16.776 10.358 15.595 9.61603 15.336C8.60493 15.022 7.65275 14.5428 6.79803 13.918C6.52507 13.7413 6.29315 13.5081 6.11789 13.2341C5.94263 12.9602 5.8281 12.6519 5.78203 12.33C5.77307 12.173 5.70438 12.0253 5.59003 11.9173C5.47568 11.8093 5.32432 11.7491 5.16702 11.7491C5.00972 11.7491 4.85839 11.8093 4.74403 11.9173C4.62968 12.0253 4.56099 12.173 4.55203 12.33" fill="#767676"/>
<mask id="mask4_44_83" style="mask-type:luminance" maskUnits="userSpaceOnUse" x="0" y="26" width="38" height="9">
<path d="M0.301025 26.292H37.853V34.309H0.301025V26.292Z" fill="white"/>
</mask>
<g mask="url(#mask4_44_83)">
<path d="M0.310059 27.58C0.317309 28.2094 0.478683 28.8274 0.78006 29.38C1.10138 29.9187 1.56958 30.3546 2.12978 30.6367C2.68997 30.9189 3.31896 31.0355 3.94307 30.973C4.99907 30.937 5.99606 30.539 7.04306 30.418C7.8069 30.3107 8.58456 30.3594 9.32907 30.561C10.0317 30.8149 10.6614 31.2373 11.1631 31.791C12.0229 32.6779 13.1294 33.2859 14.3391 33.536C15.3036 33.6728 16.2871 33.551 17.1891 33.183C17.7531 32.964 18.2671 32.651 18.8131 32.383C19.351 32.123 19.9189 31.9306 20.5041 31.81C21.3363 31.631 22.1962 31.6219 23.0321 31.783C23.3352 31.8425 23.6342 31.9217 23.9271 32.02C24.0391 32.06 24.1551 32.101 24.2671 32.145C24.2891 32.154 24.4551 32.226 24.3121 32.163L24.4641 32.23C25.2367 32.6342 26.0553 32.9437 26.9021 33.152C27.9502 33.3645 29.0387 33.2391 30.0111 32.794C30.6059 32.5016 31.1366 32.0937 31.5721 31.594C32.0174 31.0061 32.5198 30.4638 33.0721 29.975C33.8078 29.4324 34.7241 29.1936 35.6311 29.308C35.9517 29.3602 36.2654 29.4488 36.5661 29.572C36.4001 29.505 36.6511 29.612 36.7001 29.635C36.7491 29.658 36.7671 29.671 36.8001 29.689C36.9398 29.7664 37.1043 29.7862 37.2584 29.7441C37.4125 29.7021 37.5442 29.6015 37.6252 29.4639C37.7063 29.3262 37.7305 29.1623 37.6925 29.0071C37.6546 28.8519 37.5575 28.7177 37.4221 28.633C36.626 28.1905 35.717 27.9929 34.8091 28.065C33.9623 28.1301 33.149 28.4239 32.4561 28.915C31.6552 29.6516 30.8935 30.4297 30.1741 31.246C29.6181 31.67 28.9579 31.9358 28.2633 32.0154C27.5687 32.0949 26.8655 31.9853 26.2281 31.698C26.0428 31.6323 25.8621 31.5544 25.6871 31.465C25.5571 31.402 25.4321 31.335 25.3021 31.273C24.9393 31.102 24.5674 30.9511 24.1881 30.821C22.451 30.2729 20.5774 30.3457 18.8881 31.027C17.8642 31.5709 16.7881 32.0101 15.6761 32.338C14.9618 32.4502 14.2303 32.3457 13.5761 32.038C12.8313 31.6375 12.1559 31.1195 11.5761 30.504C10.7157 29.71 9.60844 29.2361 8.44006 29.162C7.15776 29.1424 5.8795 29.3108 4.64606 29.662C4.25759 29.7701 3.85107 29.7973 3.45166 29.7419C3.05225 29.6865 2.66846 29.5497 2.32407 29.34C1.98987 29.0534 1.75498 28.6683 1.65306 28.24C1.6227 28.1372 1.59866 28.0327 1.58107 27.927C1.54507 27.717 1.58106 28.027 1.56306 27.806C1.56306 27.73 1.55406 27.654 1.55406 27.578C1.5451 27.4209 1.47641 27.2733 1.36206 27.1653C1.24771 27.0573 1.09637 26.9971 0.939072 26.9971C0.781772 26.9971 0.630419 27.0573 0.516068 27.1653C0.401716 27.2733 0.333026 27.4209 0.324066 27.578" fill="#767676"/>
</g>
</svg>
