<?xml version="1.0" standalone="no"?>
<!DOCTYPE svg PUBLIC "-//W3C//DTD SVG 20010904//EN"
 "http://www.w3.org/TR/2001/REC-SVG-20010904/DTD/svg10.dtd">
<svg version="1.0" xmlns="http://www.w3.org/2000/svg"
 width="62.000000pt" height="66.000000pt" viewBox="0 0 62.000000 66.000000"
 preserveAspectRatio="xMidYMid meet">

<g transform="translate(0.000000,66.000000) scale(0.100000,-0.100000)"
fill="#000000" stroke="none">
<path d="M131 527 c-45 -16 -72 -54 -78 -109 -10 -86 42 -136 132 -126 25 3
45 5 45 4 0 0 -9 -30 -20 -64 -26 -81 -26 -143 -2 -165 56 -50 115 20 129 154
6 57 8 61 41 75 24 10 39 11 46 4 38 -38 146 26 146 87 0 31 -11 29 -45 -7
-16 -16 -39 -30 -51 -30 -22 0 -22 1 -8 28 19 36 18 116 -1 136 -27 27 -55 29
-85 8 -27 -21 -28 -21 -33 -2 -5 21 -23 25 -46 11 -10 -7 -14 -25 -12 -61 2
-43 -2 -57 -21 -77 -45 -49 -113 -68 -136 -40 -9 10 -3 16 24 26 50 18 74 48
74 92 0 55 -39 77 -99 56z m44 -67 c0 -24 -47 -61 -60 -48 -9 9 3 45 22 63 21
21 38 14 38 -15z m245 -15 c0 -33 -35 -95 -57 -103 -9 -3 -13 12 -13 52 0 42
5 61 20 76 27 27 50 16 50 -25z m-145 -260 c-7 -68 -17 -91 -35 -80 -14 9 -8
63 18 145 15 49 17 52 20 25 2 -16 1 -57 -3 -90z"/>
</g>
</svg>
