<svg width="39" height="41" viewBox="0 0 39 41" fill="none" xmlns="http://www.w3.org/2000/svg">
<mask id="mask0_44_118" style="mask-type:luminance" maskUnits="userSpaceOnUse" x="0" y="9" width="39" height="5">
<path d="M0.216064 9.99695H38.1311V13.2589H0.216064V9.99695Z" fill="white"/>
</mask>
<g mask="url(#mask0_44_118)">
<path d="M37.2201 12.8629H1.14612C0.896019 12.8629 0.656171 12.7636 0.479324 12.5867C0.302478 12.4099 0.203125 12.17 0.203125 11.9199C0.203125 11.6698 0.302478 11.43 0.479324 11.2531C0.656171 11.0763 0.896019 10.9769 1.14612 10.9769H37.2201C37.4702 10.9769 37.7101 11.0763 37.8869 11.2531C38.0638 11.43 38.1631 11.6698 38.1631 11.9199C38.1631 12.17 38.0638 12.4099 37.8869 12.5867C37.7101 12.7636 37.4702 12.8629 37.2201 12.8629Z" fill="#767676"/>
</g>
<path d="M29.6271 11.354H8.73308C8.5927 11.3479 8.46008 11.2879 8.36288 11.1865C8.26569 11.085 8.21143 10.95 8.21143 10.8094C8.21143 10.6689 8.26569 10.5339 8.36288 10.4324C8.46008 10.331 8.5927 10.271 8.73308 10.265H29.6271C29.7674 10.271 29.9001 10.331 29.9973 10.4324C30.0945 10.5339 30.1487 10.6689 30.1487 10.8094C30.1487 10.95 30.0945 11.085 29.9973 11.1865C29.9001 11.2879 29.7674 11.3479 29.6271 11.354Z" fill="#767676"/>
<mask id="mask1_44_118" style="mask-type:luminance" maskUnits="userSpaceOnUse" x="17" y="0" width="4" height="14">
<path d="M17.6261 0.594971H20.8881V13.261H17.6261V0.594971Z" fill="white"/>
</mask>
<g mask="url(#mask1_44_118)">
<path d="M18.6451 11.921V1.33296C18.6451 1.17996 18.8871 1.05896 19.1801 1.05896C19.4731 1.05896 19.7211 1.17996 19.7211 1.33296V11.92C19.7211 12.073 19.4791 12.194 19.1801 12.194C18.8811 12.194 18.6451 12.074 18.6451 11.921Z" fill="#767676"/>
</g>
<mask id="mask2_44_118" style="mask-type:luminance" maskUnits="userSpaceOnUse" x="12" y="0" width="14" height="2">
<path d="M12.733 0.594971H25.779V1.84398H12.733V0.594971Z" fill="white"/>
</mask>
<g mask="url(#mask2_44_118)">
<path d="M13.981 0.587952H24.381C24.528 0.587952 24.642 0.835956 24.642 1.13596C24.642 1.43596 24.527 1.68396 24.381 1.68396H13.981C13.835 1.68396 13.713 1.44196 13.713 1.13596C13.713 0.829956 13.834 0.587952 13.981 0.587952Z" fill="#767676"/>
</g>
<path d="M5.62411 34.765C5.59934 34.7648 5.57484 34.7598 5.55206 34.7501C5.52928 34.7403 5.50867 34.7262 5.49144 34.7084C5.4742 34.6906 5.4607 34.6695 5.45172 34.6465C5.44273 34.6234 5.43843 34.5987 5.4391 34.574V12.597C5.43723 12.5716 5.44062 12.5461 5.44905 12.5221C5.45747 12.4981 5.47075 12.4761 5.48806 12.4575C5.50538 12.4388 5.52636 12.424 5.54968 12.4138C5.573 12.4036 5.59817 12.3984 5.62361 12.3984C5.64905 12.3984 5.67422 12.4036 5.69754 12.4138C5.72086 12.424 5.74182 12.4388 5.75914 12.4575C5.77645 12.4761 5.78974 12.4981 5.79817 12.5221C5.80659 12.5461 5.80997 12.5716 5.8081 12.597V34.574C5.80877 34.5987 5.80448 34.6234 5.7955 34.6465C5.78651 34.6695 5.77301 34.6906 5.75578 34.7084C5.73855 34.7262 5.71794 34.7403 5.69516 34.7501C5.67237 34.7598 5.64787 34.7648 5.6231 34.765" fill="#767676"/>
<path d="M21.671 34.7649C21.6463 34.7648 21.6218 34.7597 21.599 34.75C21.5762 34.7403 21.5556 34.7261 21.5384 34.7083C21.5211 34.6906 21.5076 34.6695 21.4986 34.6464C21.4896 34.6233 21.4854 34.5987 21.486 34.5739V12.5969C21.486 12.5471 21.5058 12.4993 21.5411 12.464C21.5763 12.4287 21.6242 12.4089 21.674 12.4089C21.7239 12.4089 21.7717 12.4287 21.807 12.464C21.8422 12.4993 21.862 12.5471 21.862 12.5969V34.5739C21.8624 34.5991 21.8578 34.6242 21.8483 34.6475C21.8389 34.6709 21.8248 34.6921 21.807 34.7099C21.7892 34.7277 21.7679 34.7418 21.7446 34.7512C21.7212 34.7607 21.6962 34.7653 21.671 34.7649Z" fill="#767676"/>
<path d="M16.5681 32.5419C16.5434 32.5418 16.5189 32.5367 16.4961 32.527C16.4733 32.5173 16.4527 32.5031 16.4354 32.4854C16.4182 32.4676 16.4047 32.4465 16.3957 32.4234C16.3867 32.4003 16.3825 32.3757 16.3831 32.3509V12.5969C16.3831 12.5471 16.4029 12.4993 16.4382 12.464C16.4734 12.4287 16.5213 12.4089 16.5711 12.4089C16.621 12.4089 16.6688 12.4287 16.704 12.464C16.7393 12.4993 16.7591 12.5471 16.7591 12.5969V32.3509C16.7595 32.3761 16.7549 32.4012 16.7454 32.4245C16.7359 32.4479 16.7219 32.4691 16.7041 32.4869C16.6863 32.5047 16.665 32.5188 16.6417 32.5282C16.6183 32.5377 16.5933 32.5424 16.5681 32.5419Z" fill="#767676"/>
<path d="M25.767 27.541C25.718 27.541 25.6709 27.5215 25.6362 27.4868C25.6015 27.4521 25.582 27.4051 25.582 27.356V12.596C25.5802 12.5706 25.5836 12.5451 25.592 12.5211C25.6004 12.4971 25.6137 12.4751 25.631 12.4565C25.6483 12.4378 25.6693 12.423 25.6926 12.4128C25.7159 12.4026 25.7411 12.3974 25.7666 12.3974C25.792 12.3974 25.8171 12.4026 25.8405 12.4128C25.8638 12.423 25.8848 12.4378 25.9021 12.4565C25.9194 12.4751 25.9327 12.4971 25.9411 12.5211C25.9495 12.5451 25.9529 12.5706 25.951 12.596V27.356C25.951 27.4051 25.9316 27.4521 25.8969 27.4868C25.8622 27.5215 25.8161 27.541 25.767 27.541Z" fill="#767676"/>
<path d="M10.3381 27.541C10.3133 27.5416 10.2887 27.5373 10.2656 27.5284C10.2425 27.5194 10.2215 27.5059 10.2037 27.4886C10.1859 27.4714 10.1717 27.4508 10.162 27.428C10.1523 27.4052 10.1472 27.3807 10.1471 27.356V12.596C10.1471 12.5461 10.1669 12.4983 10.2022 12.463C10.2374 12.4278 10.2852 12.408 10.3351 12.408C10.385 12.408 10.4328 12.4278 10.468 12.463C10.5033 12.4983 10.5231 12.5461 10.5231 12.596V27.356C10.5231 27.405 10.5036 27.4521 10.4689 27.4868C10.4342 27.5215 10.3872 27.541 10.3381 27.541Z" fill="#767676"/>
<path d="M33.325 33.65C33.276 33.65 33.2289 33.6305 33.1942 33.5958C33.1595 33.5611 33.14 33.5141 33.14 33.465V12.597C33.1397 12.5473 33.159 12.4995 33.1935 12.4637C33.2281 12.428 33.2753 12.4073 33.325 12.406C33.375 12.4082 33.4223 12.429 33.4576 12.4644C33.493 12.4997 33.5138 12.5471 33.516 12.597V33.466C33.5147 33.5157 33.494 33.5629 33.4583 33.5975C33.4226 33.6321 33.3747 33.6513 33.325 33.651" fill="#767676"/>
<mask id="mask3_44_118" style="mask-type:luminance" maskUnits="userSpaceOnUse" x="0" y="31" width="12" height="10">
<path d="M0.216064 31.197H11.1031V40.956H0.216064V31.197Z" fill="white"/>
</mask>
<g mask="url(#mask3_44_118)">
<path d="M5.62506 32.4139L6.66307 35.6759H10.0261L7.30606 37.6889L8.34407 40.9439L5.62407 38.9309L2.90407 40.9439L3.94206 37.6889L1.21606 35.6759H4.58607L5.62506 32.4139Z" fill="#767676"/>
</g>
<path d="M33.3221 32.541L33.8321 34.127H35.4691L34.1441 35.108L34.6441 36.694L33.3221 35.7169L31.9971 36.698L32.5071 35.112L31.1821 34.131H32.8191L33.3191 32.545" fill="#767676"/>
<path d="M16.5681 30.827L17.2621 32.993H19.5041L17.6891 34.337L18.3831 36.509L16.5671 35.165L14.7581 36.509L15.4521 34.337L13.6361 32.993H15.8831L16.5711 30.827" fill="#767676"/>
<path d="M25.7671 27.076L26.3081 28.776H28.0661L26.6451 29.827L27.1861 31.527L25.7651 30.476L24.3441 31.527L24.8851 29.827L23.4641 28.776H25.2221L25.7641 27.076" fill="#767676"/>
<path d="M22.9251 35.688C22.9207 35.9345 22.8437 36.1743 22.7037 36.3772C22.5636 36.5801 22.3668 36.7371 22.1378 36.8286C21.9089 36.9201 21.658 36.9419 21.4167 36.8914C21.1754 36.8409 20.9544 36.7203 20.7813 36.5446C20.6083 36.369 20.491 36.1461 20.4441 35.9041C20.3972 35.662 20.4228 35.4116 20.5178 35.184C20.6127 34.9565 20.7727 34.762 20.9777 34.625C21.1827 34.488 21.4235 34.4146 21.6701 34.414C22.0053 34.4169 22.3257 34.5527 22.561 34.7915C22.7963 35.0303 22.9272 35.3527 22.9251 35.688Z" fill="#767676"/>
<path d="M12.0001 28.471C11.9934 28.7991 11.89 29.1179 11.7028 29.3874C11.5155 29.657 11.2529 29.8652 10.9478 29.986C10.6426 30.1068 10.3086 30.1348 9.98765 30.0665C9.66667 29.9982 9.37302 29.8366 9.14353 29.602C8.91405 29.3674 8.75895 29.0703 8.69772 28.7479C8.63648 28.4255 8.67183 28.0922 8.79933 27.7898C8.92682 27.4874 9.14077 27.2294 9.41435 27.0481C9.68793 26.8669 10.0089 26.7705 10.3371 26.771C10.7828 26.7768 11.208 26.9589 11.5197 27.2776C11.8314 27.5962 12.0041 28.0253 12.0001 28.471Z" fill="#767676"/>
</svg>
