<svg width="28" height="28" viewBox="0 0 28 28" fill="none" xmlns="http://www.w3.org/2000/svg">
<path d="M4.292 23.513V21.842H7.635V23.513H4.292ZM4.292 15.155V13.484L14.32 13.484V15.155L4.292 15.155ZM4.292 6.799V5.128L9.306 5.128V6.799H4.292ZM9.306 25.335V20.004L10.142 19.335H11.729L12.565 20.004V25.335L11.729 26.003H10.142L9.306 25.335ZM10.977 8.63499V3.288L11.814 2.62L13.485 2.62L14.32 3.288V8.637L13.485 9.305H11.814L10.978 8.638L10.977 8.63499ZM14.32 23.511V21.842H24.349V23.513H14.32V23.511ZM15.991 16.995V11.646L16.912 10.978H18.583L19.335 11.646V16.995L18.499 17.663H16.827L15.991 16.996V16.995ZM15.991 6.795V5.128H24.349V6.799L15.991 6.799V6.795ZM21.006 15.151V13.484H24.349V15.155H21.006V15.151Z" fill="#2F2F2F"/>
</svg>
