<svg width="42" height="43" viewBox="0 0 42 43" fill="none" xmlns="http://www.w3.org/2000/svg">
<path d="M20.719 7.85103L20.7121 4.19403C20.3127 4.21412 19.9153 4.26326 19.523 4.34103C18.8617 5.44943 18.3225 6.62631 17.915 7.85103H20.719Z" fill="#767676"/>
<path d="M29.158 12.815H25.599C25.56 14.0275 25.3794 15.2314 25.061 16.402H28.2C28.7839 15.2931 29.1113 14.0673 29.158 12.815Z" fill="#767676"/>
<path d="M27.788 17.095H24.858C24.493 18.2362 24.0227 19.3409 23.453 20.395C25.2329 19.8231 26.7629 18.6583 27.788 17.095Z" fill="#767676"/>
<path d="M22.5441 20.618C23.1931 19.5002 23.7271 18.3195 24.138 17.094H21.42L21.427 20.744C21.802 20.7303 22.1754 20.6882 22.5441 20.618Z" fill="#767676"/>
<path d="M24.376 8.54297H21.3979L21.405 12.123H24.905C24.8803 10.9121 24.7026 9.70921 24.376 8.54297Z" fill="#767676"/>
<path d="M27.788 7.84798C26.7677 6.28302 25.2392 5.11756 23.46 4.54797C24.0428 5.59835 24.5204 6.70372 24.886 7.84798H27.788Z" fill="#767676"/>
<path d="M24.166 7.85103C23.7524 6.61971 23.2087 5.43601 22.544 4.32002C22.163 4.24928 21.7773 4.20717 21.39 4.19403L21.397 7.85103H24.166Z" fill="#767676"/>
<path d="M16.992 8.54297H13.972C13.3873 9.64897 13.0598 10.8727 13.014 12.123H16.482C16.5036 10.9132 16.6749 9.71066 16.992 8.54297Z" fill="#767676"/>
<path d="M24.355 16.402C24.6846 15.2333 24.87 14.0287 24.907 12.815H21.407L21.414 16.402H24.355Z" fill="#767676"/>
<path d="M25.6 12.123H29.159C29.1132 10.8727 28.7857 9.64899 28.201 8.54297H25.09C25.4037 9.71137 25.575 10.9134 25.6 12.123Z" fill="#767676"/>
<path d="M20.74 16.402L20.733 12.815H17.174C17.2109 14.0287 17.3963 15.2333 17.726 16.402H20.74Z" fill="#767676"/>
<path d="M17.706 8.54297C17.3764 9.70884 17.1956 10.9117 17.168 12.123H20.734L20.727 8.54297H17.706Z" fill="#767676"/>
<path d="M18.6081 20.36C18.0489 19.3148 17.5834 18.2222 17.2171 17.095H14.3781C15.383 18.6259 16.8725 19.7756 18.6081 20.36Z" fill="#767676"/>
<path d="M20.748 20.744L20.741 17.094H17.941C18.3474 18.3113 18.8768 19.4841 19.521 20.594C19.9249 20.6798 20.3354 20.73 20.748 20.744Z" fill="#767676"/>
<path d="M18.6011 4.586C16.8674 5.1706 15.3803 6.32037 14.3781 7.851H17.1961C17.5558 6.71907 18.0264 5.62543 18.6011 4.586Z" fill="#767676"/>
<path d="M17.011 16.402C16.6948 15.2311 16.5166 14.0273 16.48 12.815H13.011C13.0577 14.0673 13.3851 15.2931 13.969 16.402H17.011Z" fill="#767676"/>
<mask id="mask0_44_152" style="mask-type:luminance" maskUnits="userSpaceOnUse" x="19" y="0" width="3" height="5">
<path d="M19.8101 0H21.6001V4.54401H19.8101V0Z" fill="white"/>
</mask>
<g mask="url(#mask0_44_152)">
<path d="M21.0481 3.05502H21.0551C21.1001 3.05411 21.1446 3.04433 21.1858 3.02625C21.2271 3.00816 21.2644 2.98213 21.2956 2.94963C21.3268 2.91713 21.3513 2.87879 21.3677 2.83682C21.384 2.79485 21.392 2.75006 21.3911 2.70502L21.3841 0.349014C21.3847 0.258416 21.3499 0.171163 21.2871 0.105804C21.2244 0.0404464 21.1386 0.00214577 21.0481 -0.000976562C20.9568 0.00185582 20.8701 0.0398479 20.8062 0.105072C20.7423 0.170296 20.7061 0.257696 20.7051 0.349014L20.7121 2.71202C20.7118 2.80187 20.7469 2.88821 20.8098 2.95239C20.8726 3.01658 20.9582 3.05345 21.0481 3.05502Z" fill="#767676"/>
</g>
<path d="M10.4631 32.821C9.65163 32.8005 8.85252 33.0225 8.16788 33.4585C7.48324 33.8945 6.94416 34.5248 6.61957 35.2687C6.29498 36.0127 6.19961 36.8365 6.34566 37.635C6.49171 38.4334 6.87253 39.1702 7.43945 39.7511C8.00638 40.332 8.73365 40.7306 9.52831 40.896C10.323 41.0615 11.1489 40.9862 11.9005 40.6798C12.6522 40.3734 13.2954 39.8498 13.7479 39.176C14.2005 38.5022 14.4418 37.7087 14.4411 36.897C14.4525 35.8294 14.0402 34.8008 13.2945 34.0368C12.5488 33.2727 11.5306 32.8355 10.4631 32.821ZM10.4631 40.036C9.83947 40.0523 9.22518 39.8823 8.69867 39.5478C8.17217 39.2132 7.75736 38.7293 7.50725 38.1578C7.25714 37.5864 7.18308 36.9533 7.29454 36.3396C7.406 35.7258 7.69791 35.1592 8.13298 34.7122C8.56805 34.2651 9.12653 33.9579 9.73705 33.8299C10.3476 33.7018 10.9824 33.7587 11.5604 33.9932C12.1385 34.2277 12.6335 34.6293 12.9822 35.1465C13.3309 35.6637 13.5174 36.2732 13.5181 36.897C13.5277 37.7177 13.2115 38.5086 12.6388 39.0965C12.0661 39.6844 11.2837 40.0211 10.4631 40.033V40.036Z" fill="#767676"/>
<mask id="mask1_44_152" style="mask-type:luminance" maskUnits="userSpaceOnUse" x="3" y="26" width="16" height="17">
<path d="M3.70203 26.022H18.021V42.955H3.70203V26.022Z" fill="white"/>
</mask>
<g mask="url(#mask1_44_152)">
<path d="M14.5671 26.217H6.35905C6.12604 26.2202 5.89595 26.2694 5.68196 26.3617C5.46796 26.4539 5.27425 26.5874 5.1119 26.7546C4.94956 26.9218 4.82176 27.1193 4.73582 27.336C4.64988 27.5526 4.60748 27.784 4.61105 28.017V41.168C4.6049 41.6383 4.78544 42.0918 5.11309 42.4292C5.44075 42.7666 5.88879 42.9604 6.35905 42.968H14.5671C15.0373 42.9604 15.4854 42.7666 15.813 42.4292C16.1407 42.0918 16.3212 41.6383 16.3151 41.168V28.014C16.3215 27.5439 16.1409 27.0905 15.8131 26.7536C15.4853 26.4166 15.0371 26.2236 14.5671 26.217ZM7.84106 27.825H13.0921C13.3601 27.8333 13.6143 27.9457 13.8009 28.1382C13.9876 28.3307 14.0919 28.5883 14.0919 28.8565C14.0919 29.1246 13.9876 29.3822 13.8009 29.5748C13.6143 29.7673 13.3601 29.8796 13.0921 29.888H7.84106C7.57548 29.8763 7.32464 29.7625 7.14085 29.5705C6.95705 29.3784 6.85447 29.1228 6.85447 28.857C6.85447 28.5911 6.95705 28.3356 7.14085 28.1435C7.32464 27.9514 7.57548 27.8377 7.84106 27.826V27.825ZM10.4631 41.668C9.51449 41.6912 8.58051 41.4313 7.78041 40.9212C6.9803 40.4112 6.35037 39.6742 5.97105 38.8045C5.59173 37.9348 5.48023 36.9717 5.65081 36.0384C5.82139 35.105 6.2663 34.2436 6.92872 33.5643C7.59114 32.8849 8.441 32.4184 9.36979 32.2243C10.2986 32.0303 11.2641 32.1174 12.1432 32.4747C13.0222 32.8319 13.7748 33.4431 14.3048 34.23C14.8349 35.017 15.1184 35.9441 15.1191 36.893C15.1335 38.1433 14.6514 39.3483 13.7785 40.2437C12.9057 41.139 11.7133 41.6516 10.4631 41.669V41.668Z" fill="#767676"/>
</g>
<path d="M31.626 32.821C30.8146 32.8005 30.0155 33.0225 29.3308 33.4585C28.6462 33.8945 28.1071 34.5248 27.7825 35.2687C27.4579 36.0127 27.3626 36.8365 27.5086 37.635C27.6547 38.4334 28.0355 39.1702 28.6024 39.7511C29.1693 40.332 29.8966 40.7306 30.6913 40.896C31.4859 41.0615 32.3119 40.9862 33.0635 40.6798C33.8151 40.3734 34.4583 39.8498 34.9109 39.176C35.3634 38.5022 35.6048 37.7087 35.604 36.897C35.6158 35.8293 35.2035 34.8006 34.4578 34.0365C33.712 33.2724 32.6937 32.8352 31.626 32.821ZM31.626 40.036C31.0027 40.0509 30.3891 39.8797 29.8635 39.5443C29.3378 39.2089 28.9241 38.7244 28.6751 38.1528C28.4261 37.5812 28.353 36.9483 28.4653 36.335C28.5776 35.7217 28.8701 35.1557 29.3055 34.7094C29.7408 34.2631 30.2993 33.9566 30.9097 33.8292C31.52 33.7017 32.1545 33.759 32.7321 33.9937C33.3098 34.2285 33.8043 34.6301 34.1527 35.1472C34.5011 35.6643 34.6874 36.2735 34.688 36.897C34.6976 37.7189 34.3805 38.5109 33.8063 39.0989C33.2321 39.687 32.4479 40.023 31.626 40.033V40.036Z" fill="#767676"/>
<mask id="mask2_44_152" style="mask-type:luminance" maskUnits="userSpaceOnUse" x="25" y="26" width="13" height="17">
<path d="M25.1801 26.022H37.7091V42.955H25.1801V26.022Z" fill="white"/>
</mask>
<g mask="url(#mask2_44_152)">
<path d="M35.73 26.217H27.53C27.0587 26.2233 26.6092 26.4164 26.2801 26.7539C25.9511 27.0914 25.7694 27.5457 25.775 28.017V41.168C25.7705 41.639 25.9525 42.0927 26.2813 42.4299C26.6102 42.7672 27.0591 42.9606 27.53 42.968H35.73C36.2003 42.9604 36.6483 42.7666 36.976 42.4292C37.3037 42.0918 37.4842 41.6383 37.478 41.168V28.014C37.4844 27.5439 37.3039 27.0905 36.9761 26.7536C36.6483 26.4166 36.2001 26.2236 35.73 26.217ZM29.004 27.825H34.255C34.5231 27.8333 34.7773 27.9457 34.9639 28.1382C35.1505 28.3307 35.2549 28.5883 35.2549 28.8565C35.2549 29.1246 35.1505 29.3822 34.9639 29.5748C34.7773 29.7673 34.5231 29.8796 34.255 29.888H29.004C28.7385 29.8763 28.4876 29.7625 28.3038 29.5705C28.12 29.3784 28.0175 29.1228 28.0175 28.857C28.0175 28.5911 28.12 28.3356 28.3038 28.1435C28.4876 27.9514 28.7385 27.8377 29.004 27.826V27.825ZM31.626 41.668C30.6775 41.6912 29.7435 41.4313 28.9434 40.9212C28.1433 40.4112 27.5134 39.6742 27.134 38.8045C26.7547 37.9348 26.6432 36.9717 26.8138 36.0384C26.9844 35.105 27.4293 34.2436 28.0917 33.5643C28.7541 32.8849 29.604 32.4184 30.5328 32.2243C31.4616 32.0303 32.4271 32.1174 33.3061 32.4747C34.1852 32.8319 34.9378 33.4431 35.4678 34.23C35.9979 35.017 36.2813 35.9441 36.282 36.893C36.29 37.5123 36.1758 38.1271 35.9461 38.7023C35.7164 39.2776 35.3756 39.8019 34.9433 40.2454C34.5109 40.6889 33.9954 41.0429 33.4263 41.2871C32.8571 41.5314 32.2454 41.6612 31.626 41.669V41.668Z" fill="#767676"/>
</g>
<path d="M5.30898 23.575C5.52047 23.7144 5.76872 23.7875 6.02198 23.785C6.07098 23.785 6.12198 23.778 6.16898 23.778C6.47201 23.7647 6.75754 23.6324 6.96353 23.4097C7.16951 23.1871 7.27928 22.8921 7.26898 22.589V22.554L6.92597 20.848C7.338 20.3986 7.85264 20.0555 8.42597 19.848C8.48712 19.8241 8.54011 19.7831 8.57859 19.7299C8.61707 19.6767 8.63943 19.6136 8.64298 19.548C8.64929 19.4838 8.63675 19.4192 8.60691 19.362C8.57708 19.3048 8.53124 19.2575 8.47498 19.226C8.1344 19.0065 7.74758 18.8689 7.34489 18.8239C6.94219 18.779 6.53458 18.828 6.15399 18.967C6.07798 18.9994 6.01515 19.0565 5.97575 19.1292C5.93635 19.2018 5.92269 19.2856 5.93697 19.367L6.23098 20.821V20.838L6.39898 21.684C6.25256 21.6499 6.1015 21.6405 5.95197 21.656C5.64895 21.6692 5.36342 21.8016 5.15743 22.0242C4.95145 22.2469 4.84168 22.5419 4.85198 22.845C4.86951 22.9929 4.91957 23.135 4.99859 23.2613C5.07761 23.3875 5.18362 23.4946 5.30898 23.575ZM7.46897 19.548C7.21959 19.691 6.9851 19.8585 6.76898 20.048L6.66898 19.548C6.93292 19.4877 7.20704 19.4877 7.47097 19.548H7.46897ZM6.02899 22.348C6.05184 22.3422 6.07543 22.3398 6.09898 22.341C6.20116 22.3293 6.30443 22.35 6.39417 22.4003C6.48391 22.4505 6.55557 22.5278 6.59898 22.621L6.60598 22.67C6.61998 22.87 6.38898 23.061 6.10598 23.089C5.9602 23.1038 5.81348 23.0719 5.68697 22.998C5.64578 22.975 5.61045 22.9429 5.58373 22.904C5.55702 22.8652 5.53966 22.8207 5.53298 22.774C5.50898 22.568 5.74398 22.372 6.02998 22.344L6.02899 22.348Z" fill="#767676"/>
<path d="M28.57 19.961C28.4926 19.9915 28.4284 20.0483 28.3887 20.1215C28.3491 20.1947 28.3364 20.2794 28.353 20.361L28.647 21.815V21.822L28.815 22.668C28.6682 22.6363 28.5172 22.6292 28.368 22.647C28.0664 22.6742 27.7836 22.8053 27.568 23.018C27.4598 23.1219 27.3761 23.2486 27.3228 23.3888C27.2696 23.5291 27.2481 23.6794 27.26 23.829C27.2794 23.9783 27.3305 24.1217 27.4101 24.2496C27.4896 24.3774 27.5956 24.4867 27.721 24.57C27.9345 24.704 28.1821 24.7734 28.434 24.77C28.4831 24.7712 28.5323 24.7688 28.581 24.763C28.8834 24.7388 29.1672 24.6072 29.381 24.392C29.4919 24.29 29.5774 24.1637 29.6309 24.0229C29.6843 23.8821 29.7042 23.7308 29.689 23.581V23.546L29.346 21.84C29.7576 21.3883 30.2722 21.0429 30.846 20.833C30.9075 20.8114 30.9611 20.7718 30.9998 20.7194C31.0385 20.6669 31.0605 20.6041 31.063 20.539C31.0686 20.4739 31.0558 20.4086 31.0261 20.3504C30.9964 20.2923 30.951 20.2436 30.895 20.21C30.5532 19.9913 30.1653 19.855 29.7618 19.8118C29.3584 19.7686 28.9504 19.8197 28.57 19.961ZM28.906 23.897C28.7964 24.0001 28.6558 24.064 28.506 24.079C28.3603 24.0938 28.2135 24.0619 28.087 23.988C28.045 23.9643 28.0092 23.931 27.9824 23.8909C27.9557 23.8508 27.9388 23.8049 27.933 23.757C27.9306 23.7113 27.9383 23.6656 27.9556 23.6233C27.9729 23.5809 27.9993 23.5429 28.033 23.512C28.1427 23.4089 28.2833 23.3449 28.433 23.33H28.51C28.6309 23.3258 28.7502 23.3574 28.853 23.421C28.9243 23.468 28.9765 23.5389 29 23.621L29.007 23.649C29.0082 23.695 28.9998 23.7408 28.9824 23.7835C28.965 23.8262 28.939 23.8648 28.906 23.897ZM29.878 20.534C29.6302 20.6794 29.3959 20.8467 29.178 21.034L29.078 20.534C29.3417 20.4776 29.6143 20.4776 29.878 20.534Z" fill="#767676"/>
<path d="M38.282 20.164C38.2388 20.1525 38.1937 20.1497 38.1494 20.1558C38.1051 20.1619 38.0625 20.1769 38.024 20.1997C37.9855 20.2225 37.952 20.2528 37.9254 20.2887C37.8988 20.3246 37.8796 20.3656 37.869 20.409L37.254 22.681C37.1399 22.583 37.0101 22.5049 36.87 22.45C36.7352 22.3852 36.5888 22.3476 36.4394 22.3396C36.29 22.3316 36.1405 22.3532 35.9995 22.4032C35.8585 22.4532 35.7288 22.5306 35.6178 22.631C35.5069 22.7314 35.4169 22.8527 35.353 22.988C35.2661 23.2809 35.2972 23.5962 35.4396 23.8666C35.5819 24.1369 35.8243 24.3409 36.115 24.435C36.2734 24.5013 36.4434 24.5353 36.615 24.535C36.8275 24.5434 37.0376 24.4872 37.2174 24.3736C37.3972 24.26 37.5383 24.0945 37.622 23.899C37.6247 23.8962 37.6266 23.8929 37.6279 23.8893C37.6291 23.8856 37.6295 23.8818 37.629 23.878C37.629 23.871 37.636 23.871 37.636 23.864L38.517 20.592C38.5408 20.5041 38.5296 20.4104 38.4858 20.3306C38.442 20.2508 38.3689 20.1911 38.282 20.164ZM37.003 23.625L36.996 23.653C36.919 23.835 36.625 23.898 36.36 23.793C36.095 23.688 35.913 23.429 35.982 23.241C36.0181 23.1739 36.0733 23.1191 36.1406 23.0835C36.2079 23.0479 36.2843 23.0331 36.36 23.041C36.4798 23.0399 36.5979 23.0696 36.703 23.1272C36.808 23.1848 36.8965 23.2684 36.96 23.37C37.0028 23.4477 37.018 23.5376 37.003 23.625Z" fill="#767676"/>
<mask id="mask3_44_152" style="mask-type:luminance" maskUnits="userSpaceOnUse" x="37" y="29" width="5" height="6">
<path d="M37.709 29.602H41.89V34.972H37.709V29.602Z" fill="white"/>
</mask>
<g mask="url(#mask3_44_152)">
<path d="M41.52 29.924C41.432 29.9025 41.3391 29.916 41.261 29.9617C41.1828 30.0074 41.1254 30.0818 41.101 30.169L40.486 32.448C40.373 32.3463 40.2426 32.2656 40.101 32.21C39.8208 32.0955 39.5098 32.0807 39.22 32.168C39.0779 32.2124 38.9475 32.2882 38.8386 32.3898C38.7298 32.4915 38.6451 32.6163 38.591 32.755C38.5057 33.047 38.5366 33.3607 38.6773 33.6304C38.818 33.9001 39.0577 34.105 39.346 34.202C39.5087 34.2654 39.6814 34.2993 39.856 34.302C39.9817 34.3011 40.1067 34.2822 40.227 34.246C40.3556 34.2061 40.4746 34.1402 40.5768 34.0525C40.679 33.9648 40.7621 33.857 40.821 33.736C40.821 33.729 40.821 33.729 40.828 33.729C40.8354 33.7037 40.8472 33.68 40.863 33.659V33.639C40.863 33.632 40.87 33.632 40.87 33.625L41.758 30.353C41.782 30.2646 41.7705 30.1703 41.7261 30.0902C41.6816 30.0101 41.6077 29.9505 41.52 29.924ZM40.234 33.378L40.227 33.413C40.2072 33.4534 40.1792 33.4892 40.1448 33.5181C40.1103 33.547 40.0702 33.5685 40.027 33.581C39.8839 33.6235 39.7304 33.6136 39.594 33.553C39.328 33.453 39.154 33.189 39.223 33.001C39.2415 32.9597 39.2691 32.9232 39.3038 32.8941C39.3384 32.865 39.3792 32.8441 39.423 32.833C39.4769 32.8135 39.5338 32.804 39.591 32.805C39.6817 32.807 39.7715 32.8236 39.857 32.854C40.115 32.958 40.283 33.196 40.234 33.378Z" fill="#767676"/>
</g>
<path d="M31.647 13.158C32.402 13.158 32.933 14.305 32.933 15.332C32.933 15.4219 32.9687 15.5082 33.0323 15.5717C33.0959 15.6353 33.1821 15.671 33.272 15.671C33.3619 15.671 33.4482 15.6353 33.5117 15.5717C33.5753 15.5082 33.611 15.4219 33.611 15.332C33.611 14.304 34.135 13.158 34.89 13.158C34.9818 13.158 35.0698 13.1216 35.1347 13.0567C35.1996 12.9918 35.236 12.9038 35.236 12.812C35.236 12.7202 35.1996 12.6322 35.1347 12.5674C35.0698 12.5025 34.9818 12.466 34.89 12.466C34.051 12.466 33.611 11.375 33.611 10.299C33.611 10.2091 33.5753 10.1229 33.5117 10.0593C33.4482 9.99574 33.3619 9.96002 33.272 9.96002C33.1821 9.96002 33.0959 9.99574 33.0323 10.0593C32.9687 10.1229 32.933 10.2091 32.933 10.299C32.933 11.376 32.493 12.466 31.647 12.466C31.5553 12.466 31.4673 12.5025 31.4024 12.5674C31.3375 12.6322 31.301 12.7202 31.301 12.812C31.301 12.9038 31.3375 12.9918 31.4024 13.0567C31.4673 13.1216 31.5553 13.158 31.647 13.158ZM33.269 11.969C33.4195 12.3021 33.6471 12.5945 33.933 12.822C33.6484 13.0733 33.4219 13.3835 33.269 13.731C33.1212 13.3825 32.8966 13.0718 32.612 12.822C32.8959 12.5941 33.1212 12.3017 33.269 11.969Z" fill="#767676"/>
<path d="M30.004 4.48799C30.1481 4.13735 30.3732 3.82585 30.661 3.57899C30.3785 3.34691 30.1536 3.05255 30.004 2.71899C29.8519 3.053 29.6246 3.34733 29.34 3.57899C29.6275 3.82758 29.8546 4.13845 30.004 4.48799Z" fill="#767676"/>
<path d="M12.001 21.842C12.2885 22.0906 12.5156 22.4015 12.665 22.751C12.8141 22.4013 13.0413 22.0904 13.329 21.842C13.0423 21.6123 12.8147 21.3174 12.665 20.982C12.5152 21.3174 12.2876 21.6123 12.001 21.842Z" fill="#767676"/>
<path d="M8.64494 7.13802C9.39994 7.13802 9.93095 8.28501 9.93095 9.31201C9.92846 9.35761 9.93528 9.40324 9.95102 9.44611C9.96675 9.48898 9.99108 9.5282 10.0225 9.56136C10.0539 9.59452 10.0917 9.62093 10.1337 9.63898C10.1756 9.65703 10.2208 9.66634 10.2664 9.66634C10.3121 9.66634 10.3573 9.65703 10.3992 9.63898C10.4412 9.62093 10.479 9.59452 10.5104 9.56136C10.5418 9.5282 10.5661 9.48898 10.5819 9.44611C10.5976 9.40324 10.6044 9.35761 10.6019 9.31201C10.6019 8.28401 11.133 7.13802 11.888 7.13802C11.9797 7.13802 12.0677 7.10155 12.1326 7.03667C12.1975 6.97178 12.2339 6.88377 12.2339 6.79201C12.2339 6.70024 12.1975 6.61224 12.1326 6.54735C12.0677 6.48246 11.9797 6.44601 11.888 6.44601C11.042 6.44601 10.6019 5.35501 10.6019 4.27901C10.6044 4.23341 10.5976 4.18778 10.5819 4.14491C10.5661 4.10204 10.5418 4.06282 10.5104 4.02966C10.479 3.9965 10.4412 3.97009 10.3992 3.95204C10.3573 3.93399 10.3121 3.92468 10.2664 3.92468C10.2208 3.92468 10.1756 3.93399 10.1337 3.95204C10.0917 3.97009 10.0539 3.9965 10.0225 4.02966C9.99108 4.06282 9.96675 4.10204 9.95102 4.14491C9.93528 4.18778 9.92846 4.23341 9.93095 4.27901C9.93095 5.35601 9.48394 6.44601 8.64494 6.44601C8.55318 6.44601 8.46517 6.48246 8.40028 6.54735C8.3354 6.61224 8.29895 6.70024 8.29895 6.79201C8.29895 6.88377 8.3354 6.97178 8.40028 7.03667C8.46517 7.10155 8.55318 7.13802 8.64494 7.13802ZM10.267 5.94901C10.4149 6.28353 10.643 6.5765 10.931 6.80202C10.6464 7.05331 10.4198 7.36347 10.267 7.71101C10.1141 7.36347 9.88756 7.05331 9.60295 6.80202C9.89085 6.57681 10.1189 6.2842 10.267 5.95001V5.94901Z" fill="#767676"/>
<path d="M23.334 26.051L20.845 24.24C20.8037 24.2083 20.7553 24.1873 20.7041 24.1788C20.6528 24.1702 20.6002 24.1744 20.551 24.191C20.5017 24.2052 20.4565 24.2306 20.4189 24.2654C20.3812 24.3001 20.3521 24.3431 20.334 24.391L19.502 26.591C19.3948 26.4825 19.2721 26.3905 19.138 26.318C18.8703 26.1753 18.5619 26.1283 18.264 26.185C18.1174 26.2118 17.9791 26.2725 17.8602 26.3623C17.7413 26.452 17.6449 26.5684 17.579 26.702C17.4644 26.9844 17.4637 27.3002 17.5771 27.583C17.6905 27.8659 17.9091 28.0939 18.187 28.219C18.3808 28.3219 18.5965 28.3771 18.816 28.38C18.8983 28.3776 18.9802 28.3682 19.061 28.352C19.2075 28.3251 19.3458 28.2644 19.4647 28.1746C19.5837 28.0849 19.68 27.9686 19.746 27.835C19.7486 27.8322 19.7506 27.8289 19.7518 27.8253C19.753 27.8216 19.7534 27.8178 19.753 27.814C19.7548 27.814 19.7566 27.8132 19.7579 27.8119C19.7592 27.8106 19.76 27.8088 19.76 27.807L20.809 25.052L22.725 26.452L21.991 28.403C21.8856 28.2924 21.7626 28.2002 21.627 28.13C21.3604 27.984 21.0509 27.9369 20.753 27.997C20.6071 28.0258 20.4698 28.0873 20.3511 28.1769C20.2325 28.2664 20.1357 28.3817 20.068 28.514C19.9549 28.7973 19.9557 29.1134 20.0704 29.3962C20.185 29.6789 20.4045 29.9064 20.683 30.031C20.8745 30.1325 21.0881 30.1854 21.305 30.185C21.3871 30.1852 21.4691 30.1782 21.55 30.164C21.6835 30.1366 21.8101 30.0822 21.9219 30.0041C22.0337 29.9261 22.1283 29.826 22.2 29.71C22.2 29.703 22.207 29.696 22.207 29.689C22.207 29.682 22.228 29.661 22.242 29.647V29.626C22.2438 29.626 22.2456 29.6252 22.2469 29.6239C22.2482 29.6226 22.249 29.6208 22.249 29.619L23.449 26.452C23.4755 26.3816 23.4787 26.3046 23.458 26.2324C23.4372 26.1601 23.3938 26.0965 23.334 26.051ZM19.153 27.505L19.146 27.533C19.1208 27.5716 19.088 27.6047 19.0494 27.63C19.0108 27.6553 18.9674 27.6723 18.922 27.68C18.7761 27.7038 18.6265 27.6792 18.496 27.61C18.237 27.47 18.09 27.198 18.181 27.023C18.2041 26.9819 18.2363 26.9467 18.2751 26.92C18.3139 26.8933 18.3584 26.8759 18.405 26.869C18.438 26.8635 18.4715 26.8611 18.505 26.862C18.6166 26.8641 18.7264 26.8904 18.827 26.939C18.9609 27.0081 19.0689 27.1185 19.135 27.254C19.1706 27.3335 19.177 27.4231 19.153 27.507V27.505ZM21.642 29.316L21.635 29.344C21.6105 29.3818 21.5787 29.4142 21.5414 29.4395C21.5041 29.4647 21.4621 29.4822 21.418 29.491C21.2699 29.5153 21.1178 29.4908 20.985 29.421C20.733 29.281 20.58 29.009 20.67 28.834C20.6931 28.7929 20.7253 28.7577 20.7641 28.731C20.8029 28.7043 20.8474 28.6869 20.894 28.68C20.927 28.6745 20.9605 28.6721 20.994 28.673C21.1056 28.6751 21.2154 28.7014 21.316 28.75C21.4498 28.8191 21.5579 28.9296 21.624 29.065C21.659 29.144 21.6654 29.2328 21.642 29.316Z" fill="#767676"/>
<mask id="mask4_44_152" style="mask-type:luminance" maskUnits="userSpaceOnUse" x="0" y="31" width="4" height="6">
<path d="M0.276001 31.392H3.702V36.761H0.276001V31.392Z" fill="white"/>
</mask>
<g mask="url(#mask4_44_152)">
<path d="M2.82796 35.286L2.16395 31.958C2.15579 31.9137 2.13894 31.8715 2.11438 31.8338C2.08981 31.7961 2.05803 31.7636 2.02084 31.7382C1.98365 31.7128 1.94181 31.695 1.89772 31.6859C1.85363 31.6768 1.80817 31.6765 1.76396 31.685C1.67506 31.7065 1.59783 31.7614 1.54831 31.8383C1.49878 31.9152 1.48075 32.0082 1.49795 32.098L1.95895 34.405C1.81212 34.3735 1.6611 34.3664 1.51196 34.384C1.21035 34.4112 0.927546 34.5423 0.711958 34.755C0.603768 34.8589 0.520015 34.9856 0.46675 35.1259C0.413485 35.2661 0.392039 35.4165 0.40396 35.566C0.421873 35.7157 0.472434 35.8597 0.552092 35.9878C0.63175 36.1158 0.738559 36.2248 0.864958 36.307C1.07837 36.441 1.32598 36.5105 1.57796 36.507C1.62706 36.5082 1.67619 36.5058 1.72496 36.5C2.02753 36.4855 2.3123 36.3528 2.51802 36.1304C2.72373 35.908 2.83395 35.6138 2.82495 35.311V35.283L2.82796 35.286ZM1.65295 35.817C1.50597 35.8324 1.35814 35.7972 1.23396 35.717C1.19211 35.6949 1.15623 35.663 1.12941 35.624C1.10259 35.5849 1.08562 35.54 1.07995 35.493C1.07599 35.4472 1.083 35.4011 1.10039 35.3585C1.11777 35.3159 1.14505 35.278 1.17996 35.248C1.28956 35.1449 1.43019 35.0809 1.57995 35.066H1.65695C1.77776 35.0618 1.89712 35.0935 1.99995 35.157C2.07124 35.204 2.12337 35.275 2.14696 35.357L2.15396 35.385C2.17096 35.587 1.94396 35.783 1.65396 35.819L1.65295 35.817Z" fill="#767676"/>
</g>
</svg>
