<svg width="54" height="41" viewBox="0 0 54 41" fill="none" xmlns="http://www.w3.org/2000/svg">
<mask id="mask0_44_67" style="mask-type:luminance" maskUnits="userSpaceOnUse" x="19" y="0" width="14" height="12">
<path d="M19.599 0.589966H32.263V11.779H19.599V0.589966Z" fill="white"/>
</mask>
<g mask="url(#mask0_44_67)">
<path d="M30.613 2.43195C29.685 1.16595 26.791 1.02594 26.041 3.00894C25.295 1.02594 22.401 1.16595 21.469 2.43195C20.9752 3.16484 20.7469 4.04453 20.8218 4.92506C20.8968 5.80559 21.2705 6.63403 21.881 7.27294C23.169 8.62641 24.5598 9.87815 26.041 11.0169C27.5231 9.87925 28.914 8.62744 30.201 7.27294C30.8134 6.63505 31.1884 5.80638 31.2633 4.92532C31.3383 4.04426 31.1088 3.16415 30.613 2.43195Z" stroke="#231F1F" stroke-width="0.95" stroke-miterlimit="10" stroke-linecap="round" stroke-linejoin="round"/>
</g>
<mask id="mask1_44_67" style="mask-type:luminance" maskUnits="userSpaceOnUse" x="21" y="9" width="33" height="32">
<path d="M21.709 9.66595H53.032V40.9559H21.709V9.66595Z" fill="white"/>
</mask>
<g mask="url(#mask1_44_67)">
<path d="M37.464 10.3369C35.4136 10.3341 33.3844 10.7517 31.5018 11.5638C29.6191 12.376 27.9229 13.5655 26.518 15.0589C27.2095 15.7895 27.8256 16.5879 28.357 17.4419C29.4909 16.1414 30.8906 15.0991 32.4617 14.3856C34.0327 13.6722 35.7385 13.304 37.464 13.3059C39.0522 13.305 40.625 13.6169 42.0926 14.2239C43.5602 14.8308 44.8939 15.7209 46.0175 16.8433C47.1411 17.9657 48.0326 19.2984 48.6411 20.7654C49.2496 22.2323 49.5632 23.8048 49.564 25.3929C49.5637 26.9815 49.2505 28.5544 48.6423 30.0219C48.034 31.4893 47.1426 32.8226 46.0189 33.9455C44.8953 35.0684 43.5614 35.9589 42.0936 36.5662C40.6257 37.1735 39.0525 37.4857 37.464 37.4849C35.8755 37.4858 34.3024 37.1738 32.8345 36.5666C31.3667 35.9594 30.0328 35.069 28.9091 33.9462C27.7855 32.8233 26.8941 31.4901 26.2858 30.0227C25.6775 28.5553 25.3643 26.9824 25.364 25.3939C25.3625 23.6186 25.7542 21.8649 26.511 20.2589C26.0307 19.2391 25.4104 18.2913 24.668 17.4429C23.1798 19.8273 22.3925 22.5823 22.396 25.3929C22.3963 27.371 22.7862 29.3296 23.5434 31.157C24.3006 32.9844 25.4104 34.6447 26.8093 36.0431C28.2083 37.4416 29.8689 38.5508 31.6966 39.3075C33.5242 40.0641 35.483 40.4533 37.461 40.4529C39.4394 40.4537 41.3985 40.0648 43.2265 39.3083C45.0545 38.5519 46.7157 37.4427 48.115 36.0443C49.5143 34.6458 50.6244 32.9853 51.382 31.1578C52.1395 29.3302 52.5296 27.3713 52.53 25.3929C52.5284 21.3986 50.9403 17.5684 48.1149 14.7449C45.2896 11.9215 41.4584 10.3359 37.464 10.3369Z" stroke="#231F1F" stroke-width="0.95" stroke-miterlimit="10" stroke-linecap="round" stroke-linejoin="round"/>
</g>
<mask id="mask2_44_67" style="mask-type:luminance" maskUnits="userSpaceOnUse" x="0" y="9" width="32" height="32">
<path d="M0 9.66595H31.208V40.9559H0V9.66595Z" fill="white"/>
</mask>
<g mask="url(#mask2_44_67)">
<path d="M24.676 33.343C23.5423 34.6441 22.1428 35.687 20.5717 36.4012C19.0007 37.1153 17.2947 37.4842 15.569 37.483C13.9805 37.4838 12.4075 37.1716 10.9397 36.5644C9.47187 35.9571 8.13806 35.0667 7.01443 33.9439C5.8908 32.8211 4.99937 31.488 4.39104 30.0206C3.7827 28.5533 3.46939 26.9804 3.469 25.392C3.46979 23.8038 3.7834 22.2314 4.39192 20.7644C5.00044 19.2975 5.89195 17.9647 7.01555 16.8423C8.13915 15.7199 9.47284 14.8299 10.9404 14.2229C12.4081 13.616 13.9808 13.3041 15.569 13.305C18.7757 13.3044 21.8512 14.5776 24.1192 16.8445C26.3872 19.1114 27.6619 22.1863 27.663 25.393C27.6646 27.1705 27.2733 28.9264 26.517 30.535C26.9985 31.5539 27.6199 32.5007 28.363 33.348C29.8556 30.9635 30.6445 28.2061 30.639 25.393C30.6383 23.4148 30.248 21.4561 29.4903 19.6288C28.7325 17.8015 27.6222 16.1414 26.2228 14.7433C24.8234 13.3452 23.1622 12.2364 21.3342 11.4804C19.5062 10.7243 17.5472 10.3358 15.569 10.337C13.5909 10.3361 11.6321 10.7248 9.80426 11.4809C7.97644 12.2371 6.31545 13.3458 4.91615 14.7439C3.51685 16.142 2.40664 17.8021 1.64892 19.6292C0.89119 21.4564 0.500788 23.4149 0.5 25.393C0.500394 27.3713 0.890499 29.3302 1.64804 31.1578C2.40558 32.9854 3.51571 34.6458 4.91503 36.0443C6.31436 37.4428 7.97547 38.5519 9.80349 39.3084C11.6315 40.0648 13.5906 40.4538 15.569 40.453C17.6193 40.4546 19.6483 40.037 21.5314 39.2259C23.4144 38.4147 25.1117 37.2271 26.519 35.736C25.8261 35.002 25.2087 34.2003 24.676 33.343Z" stroke="#231F1F" stroke-width="0.95" stroke-miterlimit="10" stroke-linecap="round" stroke-linejoin="round"/>
</g>
</svg>
