<svg xmlns="http://www.w3.org/2000/svg" width="329.129" height="274.584" viewBox="0 0 329.129 274.584">
  <g id="LOGO" transform="translate(-797.288 -274.291)">
    <g id="OPÉRATEUR_DATA_SÉCURISÉ" data-name="OPÉRATEUR DATA SÉCURISÉ" transform="translate(797.538 535.613)" style="isolation: isolate">
      <g id="baseline" transform="translate(0)" style="isolation: isolate">
        <path id="Tracé_29" data-name="Tracé 29" d="M727.571,467.423a4.357,4.357,0,0,1,1.757.351,3.873,3.873,0,0,1,1.355.965,4.466,4.466,0,0,1,.859,1.461,5.285,5.285,0,0,1,.309,1.824,5.084,5.084,0,0,1-.525,2.313,4.108,4.108,0,0,1-3.755,2.288,4.157,4.157,0,0,1-2.252-.615,4.066,4.066,0,0,1-1.509-1.66,5.11,5.11,0,0,1-.525-2.326,5.055,5.055,0,0,1,.534-2.329,4.1,4.1,0,0,1,1.522-1.66A4.15,4.15,0,0,1,727.571,467.423Zm0,.618a3.624,3.624,0,0,0-1.516.312,3.159,3.159,0,0,0-1.135.85,3.913,3.913,0,0,0-.7,1.265,4.807,4.807,0,0,0-.248,1.557,4.543,4.543,0,0,0,.432,1.992,3.5,3.5,0,0,0,1.261,1.441,3.4,3.4,0,0,0,1.9.543,3.31,3.31,0,0,0,2.616-1.117,4.174,4.174,0,0,0,.982-2.861,4.68,4.68,0,0,0-.432-2.046,3.346,3.346,0,0,0-1.255-1.419A3.514,3.514,0,0,0,727.571,468.041Z" transform="translate(-723.285 -463.613)" fill="#fff"/>
        <path id="Tracé_29_-_Contour" data-name="Tracé 29 - Contour" d="M727.571,467.173a4.626,4.626,0,0,1,1.857.371,4.139,4.139,0,0,1,1.441,1.027,4.741,4.741,0,0,1,.908,1.542,5.556,5.556,0,0,1,.324,1.91,5.354,5.354,0,0,1-.551,2.426,4.358,4.358,0,0,1-3.978,2.426,4.421,4.421,0,0,1-2.385-.653,4.331,4.331,0,0,1-1.6-1.76,5.381,5.381,0,0,1-.551-2.439,5.327,5.327,0,0,1,.561-2.443,4.37,4.37,0,0,1,1.614-1.759A4.416,4.416,0,0,1,727.571,467.173Zm0,9.2a3.858,3.858,0,0,0,3.531-2.15,4.859,4.859,0,0,0,.5-2.2,5.057,5.057,0,0,0-.294-1.738,4.243,4.243,0,0,0-.81-1.38,3.642,3.642,0,0,0-1.268-.9,4.129,4.129,0,0,0-1.657-.33,3.924,3.924,0,0,0-2.1.574,3.876,3.876,0,0,0-1.431,1.561,4.832,4.832,0,0,0-.507,2.216,4.887,4.887,0,0,0,.5,2.214,3.839,3.839,0,0,0,1.418,1.56A3.93,3.93,0,0,0,727.571,476.375Zm0-8.584a3.775,3.775,0,0,1,2.044.556,3.607,3.607,0,0,1,1.347,1.523,4.948,4.948,0,0,1,.456,2.154,4.435,4.435,0,0,1-1.044,3.026,3.564,3.564,0,0,1-2.8,1.2,3.664,3.664,0,0,1-2.042-.584,3.762,3.762,0,0,1-1.35-1.543,4.813,4.813,0,0,1-.456-2.1,5.077,5.077,0,0,1,.261-1.637,4.18,4.18,0,0,1,.744-1.345,3.419,3.419,0,0,1,1.223-.917A3.888,3.888,0,0,1,727.571,467.791Zm0,7.96A3.045,3.045,0,0,0,730,474.719a3.951,3.951,0,0,0,.919-2.7,4.454,4.454,0,0,0-.407-1.938,3.115,3.115,0,0,0-1.162-1.316,3.284,3.284,0,0,0-1.778-.479,3.393,3.393,0,0,0-1.413.289,2.923,2.923,0,0,0-1.047.782,3.683,3.683,0,0,0-.654,1.185,4.578,4.578,0,0,0-.234,1.476,4.317,4.317,0,0,0,.407,1.884,3.269,3.269,0,0,0,1.173,1.341A3.172,3.172,0,0,0,727.571,475.751Z" transform="translate(-723.285 -463.613)" fill="#fff"/>
        <path id="Tracé_30" data-name="Tracé 30" d="M745.231,467.623a3.364,3.364,0,0,1,2.337.84,2.947,2.947,0,0,1-.039,4.337,3.6,3.6,0,0,1-2.426.833h-2.793v2.819h-.689v-8.829Zm-2.921,5.406h2.741a2.97,2.97,0,0,0,1.991-.647,2.194,2.194,0,0,0,.762-1.766,2.22,2.22,0,0,0-.72-1.748,2.823,2.823,0,0,0-1.944-.64h-2.831Z" transform="translate(-724.558 -463.627)" fill="#fff"/>
        <path id="Tracé_30_-_Contour" data-name="Tracé 30 - Contour" d="M741.372,467.373h3.859a3.621,3.621,0,0,1,2.5.9,3.2,3.2,0,0,1-.044,4.713,3.854,3.854,0,0,1-2.589.893h-2.543V476.7h-1.189Zm3.731,6.01a3.368,3.368,0,0,0,2.263-.773,2.7,2.7,0,0,0,.035-3.962,3.1,3.1,0,0,0-2.17-.776h-3.359V476.2h.189v-2.819Zm-3.043-5.406h3.081a3.075,3.075,0,0,1,2.11.7,2.469,2.469,0,0,1,.8,1.935,2.442,2.442,0,0,1-.851,1.957,3.224,3.224,0,0,1-2.153.706h-2.991Zm2.991,4.8a2.742,2.742,0,0,0,1.829-.587,1.939,1.939,0,0,0,.674-1.576,1.965,1.965,0,0,0-.636-1.561,2.594,2.594,0,0,0-1.778-.577h-2.581v4.3Z" transform="translate(-724.558 -463.627)" fill="#fff"/>
        <path id="Tracé_31" data-name="Tracé 31" d="M763.991,467.325v.593h-5.508v3.358h4.806v.593h-4.806v3.68h5.759v.6h-6.448v-8.829Zm-1.609-3.667-1.184,2.175h-.554l1.132-2.5Z" transform="translate(-725.681 -463.329)" fill="#fff"/>
        <path id="Tracé_31_-_Contour" data-name="Tracé 31 - Contour" d="M761.66,462.981l1.061.576-1.374,2.525h-1.09Zm.383.777-.149-.081-.862,1.905h.018Zm-4.5,3.317h6.7v1.093h-5.508v2.858h4.806v1.093h-4.806v3.18h5.759v1.1h-6.948Zm6.2.5h-5.7V475.9h5.948v-.1h-5.759v-4.18h4.806v-.093h-4.806v-3.858h5.508Z" transform="translate(-725.681 -463.329)" fill="#fff"/>
        <path id="Tracé_32" data-name="Tracé 32" d="M777.285,467.623a3.306,3.306,0,0,1,2.258.776,2.549,2.549,0,0,1,.889,2.018,2.626,2.626,0,0,1-.64,1.75,3.02,3.02,0,0,1-1.651.991l2.439,3.294h-.856l-2.284-3.146h-3.186v3.146h-.689v-8.829Zm-3.031,5.072h2.87a2.75,2.75,0,0,0,1.909-.634,2.113,2.113,0,0,0,.7-1.644,1.989,1.989,0,0,0-.686-1.615,2.838,2.838,0,0,0-1.876-.573h-2.921Z" transform="translate(-726.776 -463.627)" fill="#fff"/>
        <path id="Tracé_32_-_Contour" data-name="Tracé 32 - Contour" d="M773.315,467.373h3.97a3.563,3.563,0,0,1,2.423.838,2.8,2.8,0,0,1,.974,2.206,2.88,2.88,0,0,1-.7,1.912,3.228,3.228,0,0,1-1.427.969l2.52,3.4H779.6l-2.284-3.146H774.5V476.7h-1.189Zm6.768,8.829-2.369-3.2.369-.087A2.788,2.788,0,0,0,779.6,472a2.362,2.362,0,0,0,.58-1.588,2.291,2.291,0,0,0-.8-1.829,3.079,3.079,0,0,0-2.094-.715h-3.47V476.2H774v-3.146h3.563l2.284,3.146ZM774,467.978h3.171a3.09,3.09,0,0,1,2.036.631,2.235,2.235,0,0,1,.776,1.807,2.363,2.363,0,0,1-.787,1.83,3,3,0,0,1-2.076.7H774Zm3.12,4.467a2.522,2.522,0,0,0,1.742-.57,1.858,1.858,0,0,0,.621-1.458,1.736,1.736,0,0,0-.6-1.424,2.611,2.611,0,0,0-1.716-.515H774.5v3.967Z" transform="translate(-726.776 -463.627)" fill="#fff"/>
        <path id="Tracé_33" data-name="Tracé 33" d="M793.927,467.6l3.861,8.854h-.727l-.958-2.226h-5.328l-.959,2.226H789.1l3.861-8.854Zm-2.889,6.01h4.788l-2.285-5.315h-.206Z" transform="translate(-728.115 -463.625)" fill="#fff"/>
        <path id="Tracé_33_-_Contour" data-name="Tracé 33 - Contour" d="M792.8,467.346h1.292l4.079,9.354H796.9l-.958-2.226h-5l-.959,2.226h-1.26Zm.965.5h-.638l-3.643,8.354h.167l.959-2.226h5.658l.958,2.226h.18Zm-.592.2h.535l2.5,5.815h-5.548Zm2.275,5.315-2.008-4.672-2.02,4.672Z" transform="translate(-728.115 -463.625)" fill="#fff"/>
        <path id="Tracé_34" data-name="Tracé 34" d="M814.226,467.623v.6h-3.52v8.224h-.689v-8.224H806.5v-.6Z" transform="translate(-729.391 -463.627)" fill="#fff"/>
        <path id="Tracé_34_-_Contour" data-name="Tracé 34 - Contour" d="M806.254,467.373h8.222v1.1h-3.52V476.7h-1.189v-8.224h-3.513Zm7.722.5h-7.222v.1h3.513V476.2h.189v-8.224h3.52Z" transform="translate(-729.391 -463.627)" fill="#fff"/>
        <path id="Tracé_35" data-name="Tracé 35" d="M829.7,467.623v.593h-5.509v3.358H829v.593h-4.807v3.68h5.76v.6h-6.449v-8.829Z" transform="translate(-730.636 -463.627)" fill="#fff"/>
        <path id="Tracé_35_-_Contour" data-name="Tracé 35 - Contour" d="M823.255,467.373h6.7v1.093h-5.509v2.858h4.807v1.093h-4.807v3.18h5.76v1.1h-6.949Zm6.2.5h-5.7V476.2H829.7v-.1h-5.76v-4.18h4.807v-.093h-4.807v-3.858h5.509Z" transform="translate(-730.636 -463.627)" fill="#fff"/>
        <path id="Tracé_36" data-name="Tracé 36" d="M839.965,467.623v4.73a4.01,4.01,0,0,0,.834,2.719,2.875,2.875,0,0,0,2.287.956,2.957,2.957,0,0,0,2.291-.911,3.927,3.927,0,0,0,.837-2.738v-4.756h.682v4.73a4.659,4.659,0,0,1-.987,3.134,4.054,4.054,0,0,1-5.641.02,4.55,4.55,0,0,1-.991-3.1v-4.781Z" transform="translate(-731.795 -463.627)" fill="#fff"/>
        <path id="Tracé_36_-_Contour" data-name="Tracé 36 - Contour" d="M839.026,467.373h1.189v4.98a3.792,3.792,0,0,0,.772,2.555,2.616,2.616,0,0,0,2.1.87,2.7,2.7,0,0,0,2.107-.83,3.71,3.71,0,0,0,.771-2.569v-5.006h1.182v4.98a4.918,4.918,0,0,1-1.047,3.3,4.3,4.3,0,0,1-6.019.022,4.809,4.809,0,0,1-1.053-3.267Zm.689.5h-.189V472.4a4.33,4.33,0,0,0,.929,2.938,3.323,3.323,0,0,0,2.63,1.047,3.252,3.252,0,0,0,2.633-1.065,4.439,4.439,0,0,0,.927-2.971v-4.48h-.182v4.506a4.179,4.179,0,0,1-.9,2.907,3.209,3.209,0,0,1-2.475.992,3.127,3.127,0,0,1-2.476-1.041,4.267,4.267,0,0,1-.9-2.883Z" transform="translate(-731.795 -463.627)" fill="#fff"/>
        <path id="Tracé_37" data-name="Tracé 37" d="M860.385,467.623a3.307,3.307,0,0,1,2.259.776,2.551,2.551,0,0,1,.888,2.018,2.621,2.621,0,0,1-.64,1.75,3.018,3.018,0,0,1-1.651.991l2.439,3.294h-.855l-2.285-3.146h-3.185v3.146h-.688v-8.829Zm-3.031,5.072h2.87a2.747,2.747,0,0,0,1.908-.634,2.109,2.109,0,0,0,.7-1.644,1.988,1.988,0,0,0-.685-1.615,2.838,2.838,0,0,0-1.876-.573h-2.921Z" transform="translate(-733.07 -463.627)" fill="#fff"/>
        <path id="Tracé_37_-_Contour" data-name="Tracé 37 - Contour" d="M856.416,467.373h3.969a3.564,3.564,0,0,1,2.423.838,2.8,2.8,0,0,1,.973,2.206,2.876,2.876,0,0,1-.7,1.912,3.228,3.228,0,0,1-1.427.969l2.521,3.4H862.7l-2.285-3.146H857.6V476.7h-1.188Zm6.767,8.829-2.37-3.2.369-.087A2.75,2.75,0,0,0,862.7,472a2.358,2.358,0,0,0,.58-1.588,2.293,2.293,0,0,0-.8-1.829,3.08,3.08,0,0,0-2.094-.714h-3.469V476.2h.188v-3.146h3.563l2.285,3.146Zm-6.079-8.224h3.171a3.09,3.09,0,0,1,2.036.631,2.235,2.235,0,0,1,.775,1.807,2.36,2.36,0,0,1-.787,1.83,3,3,0,0,1-2.075.7H857.1Zm3.12,4.467a2.52,2.52,0,0,0,1.74-.57,1.855,1.855,0,0,0,.622-1.458,1.736,1.736,0,0,0-.6-1.424,2.611,2.611,0,0,0-1.716-.515H857.6v3.967Z" transform="translate(-733.07 -463.627)" fill="#fff"/>
        <path id="Tracé_38" data-name="Tracé 38" d="M886.8,467.623a5.17,5.17,0,0,1,2.458.563,3.954,3.954,0,0,1,1.629,1.564,4.56,4.56,0,0,1,.567,2.287,4.417,4.417,0,0,1-.589,2.278,4.1,4.1,0,0,1-1.66,1.571,5.146,5.146,0,0,1-2.443.566H883.74v-8.829Zm-2.368,8.211h2.329a4.539,4.539,0,0,0,2.063-.453,3.382,3.382,0,0,0,1.419-1.322,3.9,3.9,0,0,0,.515-2.021,3.615,3.615,0,0,0-1.078-2.812,4.182,4.182,0,0,0-2.931-.985h-2.316Z" transform="translate(-735.057 -463.627)" fill="#fff"/>
        <path id="Tracé_38_-_Contour" data-name="Tracé 38 - Contour" d="M883.49,467.373H886.8a5.438,5.438,0,0,1,2.575.592,4.219,4.219,0,0,1,1.729,1.662,4.828,4.828,0,0,1,.6,2.411,4.683,4.683,0,0,1-.623,2.4,4.37,4.37,0,0,1-1.759,1.665,5.417,5.417,0,0,1-2.56.595H883.49Zm3.268,8.829a4.924,4.924,0,0,0,2.326-.537,3.877,3.877,0,0,0,1.561-1.476,4.19,4.19,0,0,0,.555-2.151,4.336,4.336,0,0,0-.534-2.164,3.727,3.727,0,0,0-1.528-1.467,4.945,4.945,0,0,0-2.34-.534H883.99V476.2Zm-2.579-8.211h2.566a4.44,4.44,0,0,1,3.1,1.05,3.87,3.87,0,0,1,1.16,3,4.162,4.162,0,0,1-.549,2.148,3.642,3.642,0,0,1-1.522,1.419,4.807,4.807,0,0,1-2.175.48h-2.579Zm2.579,7.593a4.313,4.313,0,0,0,1.951-.427,3.15,3.15,0,0,0,1.316-1.226,3.67,3.67,0,0,0,.48-1.894,3.351,3.351,0,0,0-1-2.628,3.96,3.96,0,0,0-2.763-.919h-2.066v7.093Z" transform="translate(-735.057 -463.627)" fill="#fff"/>
        <path id="Tracé_39" data-name="Tracé 39" d="M904.994,467.6l3.861,8.854h-.727l-.959-2.226H901.84l-.958,2.226h-.715l3.862-8.854Zm-2.889,6.01h4.788l-2.285-5.315H904.4Z" transform="translate(-736.264 -463.625)" fill="#fff"/>
        <path id="Tracé_39_-_Contour" data-name="Tracé 39 - Contour" d="M903.865,467.346h1.292l.065.15,4.013,9.2h-1.273L907,474.474h-5l-.958,2.226h-1.261Zm.965.5h-.637l-3.644,8.354h.168l.958-2.226h5.657l.959,2.226h.181Zm-.592.2h.535l2.5,5.815h-5.548Zm2.275,5.315-2.008-4.672-2.02,4.672Z" transform="translate(-736.264 -463.625)" fill="#fff"/>
        <path id="Tracé_40" data-name="Tracé 40" d="M925.293,467.623v.6h-3.52v8.224h-.688v-8.224h-3.514v-.6Z" transform="translate(-737.539 -463.627)" fill="#fff"/>
        <path id="Tracé_40_-_Contour" data-name="Tracé 40 - Contour" d="M917.321,467.373h8.222v1.1h-3.52V476.7h-1.188v-8.224h-3.514Zm7.722.5h-7.222v.1h3.514V476.2h.188v-8.224h3.52Z" transform="translate(-737.539 -463.627)" fill="#fff"/>
        <path id="Tracé_41" data-name="Tracé 41" d="M938.763,467.6l3.861,8.854H941.9l-.958-2.226H935.61l-.96,2.226h-.714L937.8,467.6Zm-2.889,6.01h4.788l-2.285-5.315h-.206Z" transform="translate(-738.742 -463.625)" fill="#fff"/>
        <path id="Tracé_41_-_Contour" data-name="Tracé 41 - Contour" d="M937.634,467.346h1.292l4.079,9.354h-1.273l-.958-2.226h-5l-.96,2.226h-1.26Zm.965.5h-.637l-3.643,8.354h.167l.96-2.226H941.1l.958,2.226h.18Zm-.592.2h.535l2.5,5.815h-5.548Zm2.275,5.315-2.008-4.672-2.02,4.672Z" transform="translate(-738.742 -463.625)" fill="#fff"/>
        <path id="Tracé_42" data-name="Tracé 42" d="M965.814,468.028a3.063,3.063,0,0,0-1.9.486,1.536,1.536,0,0,0-.622,1.271,1.384,1.384,0,0,0,.473,1.126,3.012,3.012,0,0,0,1.452.547l1.479.212a3.648,3.648,0,0,1,1.966.779,2.045,2.045,0,0,1,.686,1.615,2.192,2.192,0,0,1-.995,1.834,4.459,4.459,0,0,1-2.687.728,6.536,6.536,0,0,1-1.834-.238,5.241,5.241,0,0,1-1.589-.792l.354-.541a4.79,4.79,0,0,0,1.454.737,5.886,5.886,0,0,0,1.641.209,3.8,3.8,0,0,0,2.184-.541,1.655,1.655,0,0,0,.783-1.422,1.505,1.505,0,0,0-.5-1.161,2.847,2.847,0,0,0-1.57-.6l-1.551-.212q-2.426-.335-2.426-2.265a2.035,2.035,0,0,1,.876-1.738,3.848,3.848,0,0,1,2.316-.636,6.343,6.343,0,0,1,1.7.232,4.482,4.482,0,0,1,1.448.676l-.367.515a4.4,4.4,0,0,0-1.284-.6A5.2,5.2,0,0,0,965.814,468.028Z" transform="translate(-740.815 -463.613)" fill="#fff"/>
        <path id="Tracé_42_-_Contour" data-name="Tracé 42 - Contour" d="M965.8,467.173a6.626,6.626,0,0,1,1.766.241,4.754,4.754,0,0,1,1.528.714l.2.145-.654.918-.2-.142a4.17,4.17,0,0,0-1.212-.566,4.969,4.969,0,0,0-1.413-.206,2.848,2.848,0,0,0-1.747.433,1.288,1.288,0,0,0-.526,1.074,1.138,1.138,0,0,0,.383.934,2.794,2.794,0,0,0,1.331.492l1.476.212a3.9,3.9,0,0,1,2.1.839,2.294,2.294,0,0,1,.77,1.8,2.438,2.438,0,0,1-1.1,2.036,4.718,4.718,0,0,1-2.834.776,6.815,6.815,0,0,1-1.9-.248,5.517,5.517,0,0,1-1.665-.829l-.194-.14.628-.96.212.153a4.565,4.565,0,0,0,1.378.7,5.666,5.666,0,0,0,1.572.2,3.584,3.584,0,0,0,2.042-.5,1.407,1.407,0,0,0,.675-1.216,1.255,1.255,0,0,0-.421-.977,2.628,2.628,0,0,0-1.434-.539L965,472.31a3.519,3.519,0,0,1-1.956-.8,2.242,2.242,0,0,1-.686-1.714,2.282,2.282,0,0,1,.979-1.94A4.106,4.106,0,0,1,965.8,467.173Zm2.795,1.221a4.419,4.419,0,0,0-1.162-.5,6.126,6.126,0,0,0-1.632-.223,3.625,3.625,0,0,0-2.169.589,1.784,1.784,0,0,0-.773,1.536c0,1.152.723,1.812,2.21,2.017l1.551.212a3.051,3.051,0,0,1,1.705.666,1.752,1.752,0,0,1,.583,1.345,1.9,1.9,0,0,1-.891,1.628,4.058,4.058,0,0,1-2.326.585,6.161,6.161,0,0,1-1.711-.219,4.88,4.88,0,0,1-1.316-.626l-.08.122a4.906,4.906,0,0,0,1.317.62,6.319,6.319,0,0,0,1.764.228,4.238,4.238,0,0,0,2.539-.679,1.939,1.939,0,0,0,.892-1.632,1.792,1.792,0,0,0-.6-1.427,3.424,3.424,0,0,0-1.834-.719l-1.481-.212a3.222,3.222,0,0,1-1.576-.6,1.629,1.629,0,0,1-.563-1.318,1.781,1.781,0,0,1,.718-1.468,3.309,3.309,0,0,1,2.055-.539,5.468,5.468,0,0,1,1.554.226,4.807,4.807,0,0,1,1.149.5Z" transform="translate(-740.815 -463.613)" fill="#fff"/>
        <path id="Tracé_43" data-name="Tracé 43" d="M984.846,467.325v.593h-5.508v3.358h4.806v.593h-4.806v3.68H985.1v.6h-6.448v-8.829Zm-1.609-3.667-1.184,2.175H981.5l1.133-2.5Z" transform="translate(-742.016 -463.329)" fill="#fff"/>
        <path id="Tracé_43_-_Contour" data-name="Tracé 43 - Contour" d="M982.515,462.981l1.061.576-1.374,2.525h-1.09Zm.383.777-.149-.081-.862,1.905h.018Zm-4.5,3.317h6.7v1.093h-5.508v2.858h4.806v1.093h-4.806v3.18h5.759v1.1H978.4Zm6.2.5h-5.7V475.9h5.948v-.1h-5.759v-4.18h4.806v-.093h-4.806v-3.858H984.6Z" transform="translate(-742.016 -463.329)" fill="#fff"/>
        <path id="Tracé_44" data-name="Tracé 44" d="M998.7,468.028a3.931,3.931,0,0,0-2.892,1.106,3.985,3.985,0,0,0,2.854,6.88,4.624,4.624,0,0,0,3.121-1.159l.411.463a5.184,5.184,0,0,1-3.6,1.307,5.052,5.052,0,0,1-2.394-.547,3.931,3.931,0,0,1-1.622-1.589A4.9,4.9,0,0,1,994,472.05a4.847,4.847,0,0,1,.341-1.828,4.222,4.222,0,0,1,2.49-2.445,5.483,5.483,0,0,1,2-.354,5.291,5.291,0,0,1,3.166,1.132l-.367.489A4.434,4.434,0,0,0,998.7,468.028Z" transform="translate(-743.148 -463.613)" fill="#fff"/>
        <path id="Tracé_44_-_Contour" data-name="Tracé 44 - Contour" d="M998.831,467.173a5.54,5.54,0,0,1,3.325,1.189l.184.152-.668.89-.2-.168a4.21,4.21,0,0,0-2.769-.958,3.705,3.705,0,0,0-2.716,1.034,4.065,4.065,0,0,0,0,5.435,3.691,3.691,0,0,0,2.68,1.017,4.4,4.4,0,0,0,2.958-1.1l.187-.162.74.834-.185.166a5.45,5.45,0,0,1-3.764,1.371,5.32,5.32,0,0,1-2.511-.576,4.2,4.2,0,0,1-1.723-1.688,5.487,5.487,0,0,1-.258-4.482,4.471,4.471,0,0,1,2.632-2.585A5.759,5.759,0,0,1,998.831,467.173Zm2.818,1.429a4.916,4.916,0,0,0-1.218-.633,4.722,4.722,0,0,0-1.6-.3,5.262,5.262,0,0,0-1.911.337,3.972,3.972,0,0,0-2.349,2.305,4.624,4.624,0,0,0-.323,1.735,4.68,4.68,0,0,0,.553,2.317,3.7,3.7,0,0,0,1.521,1.491,4.828,4.828,0,0,0,2.278.518,5,5,0,0,0,3.241-1.081l-.082-.092a4.874,4.874,0,0,1-3.094,1.062,4.174,4.174,0,0,1-3.029-1.159,4.562,4.562,0,0,1,0-6.148,4.188,4.188,0,0,1,3.068-1.179,4.723,4.723,0,0,1,2.882.912Z" transform="translate(-743.148 -463.613)" fill="#fff"/>
        <path id="Tracé_45" data-name="Tracé 45" d="M1012.131,467.623v4.73a4.011,4.011,0,0,0,.833,2.719,2.877,2.877,0,0,0,2.288.956,2.96,2.96,0,0,0,2.291-.911,3.931,3.931,0,0,0,.837-2.738v-4.756h.682v4.73a4.654,4.654,0,0,1-.988,3.134,4.052,4.052,0,0,1-5.64.02,4.55,4.55,0,0,1-.991-3.1v-4.781Z" transform="translate(-744.654 -463.627)" fill="#fff"/>
        <path id="Tracé_45_-_Contour" data-name="Tracé 45 - Contour" d="M1011.193,467.373h1.188v4.98a3.793,3.793,0,0,0,.771,2.555,2.617,2.617,0,0,0,2.1.87,2.7,2.7,0,0,0,2.107-.83,3.713,3.713,0,0,0,.771-2.568v-5.006h1.182v4.98a4.914,4.914,0,0,1-1.049,3.3,4.3,4.3,0,0,1-6.018.021,4.809,4.809,0,0,1-1.053-3.267Zm.688.5h-.188V472.4a4.33,4.33,0,0,0,.929,2.938,3.806,3.806,0,0,0,5.262-.018,4.434,4.434,0,0,0,.928-2.971v-4.48h-.182v4.506a4.182,4.182,0,0,1-.9,2.907,3.211,3.211,0,0,1-2.475.992,3.129,3.129,0,0,1-2.477-1.041,4.268,4.268,0,0,1-.894-2.883Z" transform="translate(-744.654 -463.627)" fill="#fff"/>
        <path id="Tracé_46" data-name="Tracé 46" d="M1032.551,467.623a3.307,3.307,0,0,1,2.259.776,2.552,2.552,0,0,1,.887,2.018,2.619,2.619,0,0,1-.64,1.75,3.013,3.013,0,0,1-1.65.991l2.439,3.294h-.855l-2.284-3.146h-3.186v3.146h-.688v-8.829Zm-3.031,5.072h2.87a2.747,2.747,0,0,0,1.908-.634,2.109,2.109,0,0,0,.7-1.644,1.988,1.988,0,0,0-.685-1.615,2.84,2.84,0,0,0-1.876-.573h-2.921Z" transform="translate(-745.862 -463.627)" fill="#fff"/>
        <path id="Tracé_46_-_Contour" data-name="Tracé 46 - Contour" d="M1028.582,467.373h3.969a3.565,3.565,0,0,1,2.423.838,2.8,2.8,0,0,1,.973,2.206,2.874,2.874,0,0,1-.7,1.912,3.218,3.218,0,0,1-1.426.969l2.52,3.4h-1.479l-2.284-3.146h-2.808V476.7h-1.188Zm6.767,8.829-2.369-3.2.369-.087a2.78,2.78,0,0,0,1.517-.91,2.356,2.356,0,0,0,.581-1.589,2.293,2.293,0,0,0-.8-1.829,3.08,3.08,0,0,0-2.094-.714h-3.469V476.2h.188v-3.146h3.563l2.284,3.146Zm-6.079-8.224h3.171a3.092,3.092,0,0,1,2.036.631,2.235,2.235,0,0,1,.774,1.807,2.36,2.36,0,0,1-.787,1.83,3,3,0,0,1-2.075.7h-3.12Zm3.12,4.467a2.52,2.52,0,0,0,1.741-.57,1.855,1.855,0,0,0,.621-1.458,1.736,1.736,0,0,0-.595-1.424,2.613,2.613,0,0,0-1.716-.515h-2.671v3.967Z" transform="translate(-745.862 -463.627)" fill="#fff"/>
        <path id="Tracé_47" data-name="Tracé 47" d="M1045.693,467.623v8.829H1045v-8.829Z" transform="translate(-746.985 -463.627)" fill="#fff"/>
        <path id="Tracé_47_-_Contour" data-name="Tracé 47 - Contour" d="M1044.754,467.373h1.189V476.7h-1.189Zm.689.5h-.189V476.2h.189Z" transform="translate(-746.985 -463.627)" fill="#fff"/>
        <path id="Tracé_48" data-name="Tracé 48" d="M1058.025,468.028a3.072,3.072,0,0,0-1.9.486,1.54,1.54,0,0,0-.621,1.271,1.381,1.381,0,0,0,.473,1.126,3.012,3.012,0,0,0,1.452.547l1.479.212a3.646,3.646,0,0,1,1.966.779,2.045,2.045,0,0,1,.685,1.615,2.191,2.191,0,0,1-.994,1.834,4.457,4.457,0,0,1-2.686.728,6.545,6.545,0,0,1-1.834-.238,5.253,5.253,0,0,1-1.589-.792l.354-.541a4.789,4.789,0,0,0,1.454.737,5.887,5.887,0,0,0,1.641.209,3.8,3.8,0,0,0,2.185-.541,1.656,1.656,0,0,0,.782-1.422,1.5,1.5,0,0,0-.5-1.161,2.85,2.85,0,0,0-1.57-.6l-1.551-.212q-2.426-.335-2.426-2.265a2.038,2.038,0,0,1,.875-1.738,3.855,3.855,0,0,1,2.317-.636,6.341,6.341,0,0,1,1.7.232,4.476,4.476,0,0,1,1.448.676l-.368.515a4.377,4.377,0,0,0-1.283-.6A5.2,5.2,0,0,0,1058.025,468.028Z" transform="translate(-747.641 -463.613)" fill="#fff"/>
        <path id="Tracé_48_-_Contour" data-name="Tracé 48 - Contour" d="M1058.012,467.173a6.619,6.619,0,0,1,1.766.241,4.744,4.744,0,0,1,1.528.714l.2.146-.656.918-.2-.142a4.148,4.148,0,0,0-1.211-.566,4.968,4.968,0,0,0-1.413-.206,2.857,2.857,0,0,0-1.748.433,1.29,1.29,0,0,0-.524,1.074,1.136,1.136,0,0,0,.382.934,2.794,2.794,0,0,0,1.331.493l1.476.212a3.9,3.9,0,0,1,2.1.839,2.294,2.294,0,0,1,.769,1.8,2.437,2.437,0,0,1-1.1,2.036,4.717,4.717,0,0,1-2.834.776,6.825,6.825,0,0,1-1.9-.248,5.522,5.522,0,0,1-1.665-.829l-.194-.14.628-.96.212.153a4.563,4.563,0,0,0,1.378.7,5.669,5.669,0,0,0,1.571.2,3.586,3.586,0,0,0,2.043-.5,1.407,1.407,0,0,0,.674-1.216,1.255,1.255,0,0,0-.42-.977,2.633,2.633,0,0,0-1.434-.539l-1.552-.212a3.52,3.52,0,0,1-1.956-.8,2.243,2.243,0,0,1-.686-1.714,2.285,2.285,0,0,1,.977-1.94A4.115,4.115,0,0,1,1058.012,467.173Zm2.795,1.221a4.417,4.417,0,0,0-1.162-.5,6.119,6.119,0,0,0-1.633-.223,3.633,3.633,0,0,0-2.17.589,1.786,1.786,0,0,0-.772,1.536c0,1.152.723,1.812,2.21,2.017l1.551.212a3.056,3.056,0,0,1,1.7.666,1.751,1.751,0,0,1,.583,1.346,1.9,1.9,0,0,1-.889,1.628,4.062,4.062,0,0,1-2.327.585,6.165,6.165,0,0,1-1.71-.219,4.879,4.879,0,0,1-1.316-.626l-.08.122a4.917,4.917,0,0,0,1.317.62,6.328,6.328,0,0,0,1.764.228,4.238,4.238,0,0,0,2.539-.679,1.938,1.938,0,0,0,.891-1.632,1.791,1.791,0,0,0-.6-1.427,3.424,3.424,0,0,0-1.834-.719l-1.482-.212a3.222,3.222,0,0,1-1.576-.6,1.626,1.626,0,0,1-.563-1.318,1.784,1.784,0,0,1,.716-1.468,3.319,3.319,0,0,1,2.056-.539,5.465,5.465,0,0,1,1.554.226,4.791,4.791,0,0,1,1.148.5Z" transform="translate(-747.641 -463.613)" fill="#fff"/>
        <path id="Tracé_49" data-name="Tracé 49" d="M1077.058,467.325v.593h-5.509v3.358h4.807v.593h-4.807v3.68h5.759v.6h-6.448v-8.829Zm-1.609-3.667-1.185,2.175h-.553l1.132-2.5Z" transform="translate(-748.78 -463.329)" fill="#fff"/>
        <path id="Tracé_49_-_Contour" data-name="Tracé 49 - Contour" d="M1074.728,462.981l1.061.576-1.375,2.525h-1.089Zm.383.777-.149-.081-.862,1.905h.017Zm-4.5,3.317h6.7v1.093H1071.8v2.858h4.807v1.093H1071.8v3.18h5.759v1.1h-6.948Zm6.2.5h-5.7V475.9h5.948v-.1H1071.3v-4.18h4.807v-.093H1071.3v-3.858h5.509Z" transform="translate(-748.78 -463.329)" fill="#fff"/>
      </g>
    </g>
    <g id="METRO_OPTIC" data-name="METRO OPTIC" transform="translate(799.142 495.717)" style="isolation: isolate">
      <g id="nom" transform="translate(0)" style="isolation: isolate">
        <path id="Tracé_50" data-name="Tracé 50" d="M731.526,421.158l8.672,14.01,8.581-14.01h7.411v30.9h-6.78V431.676H749l-7.162,11.758h-3.582L731.1,431.676h-.4V452.06h-6.734v-30.9Z" transform="translate(-723.959 -420.505)" fill="#fff"/>
        <path id="Tracé_51" data-name="Tracé 51" d="M789.5,421.158v6.217H773.213v5.81H787.74v6.059H773.213v6.6h17.072v6.216h-23.9v-30.9Z" transform="translate(-726.905 -420.505)" fill="#fff"/>
        <path id="Tracé_52" data-name="Tracé 52" d="M824.857,421.158v6.262H814.294v24.64h-6.87V427.42H796.861v-6.262Z" transform="translate(-729.328 -420.505)" fill="#fff"/>
        <path id="Tracé_53" data-name="Tracé 53" d="M846.913,421.158a12.886,12.886,0,0,1,8.716,2.872,9.591,9.591,0,0,1,3.333,7.646,9.727,9.727,0,0,1-1.655,5.609,10.274,10.274,0,0,1-4.673,3.694l7.522,11.081h-8.4l-5.677-9.235h-6.216v9.235h-6.914v-30.9Zm-7.05,15.541h6.555a5.955,5.955,0,0,0,3.986-1.262,4.279,4.279,0,0,0,1.486-3.446,4.329,4.329,0,0,0-1.4-3.434,5.7,5.7,0,0,0-3.9-1.228h-6.734Z" transform="translate(-731.985 -420.505)" fill="#fff"/>
        <path id="Tracé_54" data-name="Tracé 54" d="M882.845,420.456a17.856,17.856,0,0,1,6.679,1.227,14.8,14.8,0,0,1,8.535,8.48,16.874,16.874,0,0,1,1.206,6.4,16.349,16.349,0,0,1-1.206,6.239,15.874,15.874,0,0,1-3.332,5.135,15.3,15.3,0,0,1-5.226,3.458,18.123,18.123,0,0,1-13.255.034,14.986,14.986,0,0,1-8.558-8.491,16.676,16.676,0,0,1-1.216-6.374,16.224,16.224,0,0,1,2.072-8.1,15.275,15.275,0,0,1,5.845-5.845A16.7,16.7,0,0,1,882.845,420.456Zm0,6.194a9.56,9.56,0,0,0-5.079,1.34,8.662,8.662,0,0,0-3.311,3.571,11.019,11.019,0,0,0-1.115,5,10.061,10.061,0,0,0,2.591,7.106,8.955,8.955,0,0,0,6.914,2.8,9.557,9.557,0,0,0,5.147-1.363,8.581,8.581,0,0,0,3.277-3.581,11.181,11.181,0,0,0,1.081-4.966,10.091,10.091,0,0,0-2.567-7.14A9,9,0,0,0,882.845,426.65Z" transform="translate(-734.464 -420.456)" fill="#fff"/>
        <path id="Tracé_55" data-name="Tracé 55" d="M937.885,420.456a17.855,17.855,0,0,1,6.678,1.227,14.8,14.8,0,0,1,8.536,8.48,16.874,16.874,0,0,1,1.205,6.4A16.348,16.348,0,0,1,953.1,442.8a15.87,15.87,0,0,1-3.333,5.135,15.308,15.308,0,0,1-5.226,3.458,18.121,18.121,0,0,1-13.254.034,14.992,14.992,0,0,1-8.559-8.491,16.675,16.675,0,0,1-1.216-6.374,16.224,16.224,0,0,1,2.072-8.1,15.275,15.275,0,0,1,5.845-5.845A16.7,16.7,0,0,1,937.885,420.456Zm0,6.194a9.566,9.566,0,0,0-5.08,1.34,8.661,8.661,0,0,0-3.311,3.571,11.031,11.031,0,0,0-1.114,5,10.061,10.061,0,0,0,2.59,7.106,8.957,8.957,0,0,0,6.915,2.8,9.553,9.553,0,0,0,5.146-1.363,8.587,8.587,0,0,0,3.277-3.581,11.2,11.2,0,0,0,1.081-4.966,10.088,10.088,0,0,0-2.568-7.14A9,9,0,0,0,937.885,426.65Z" transform="translate(-738.522 -420.456)" fill="#fff"/>
        <path id="Tracé_56" data-name="Tracé 56" d="M976.735,421.158a12.842,12.842,0,0,1,8.931,3.052,10.369,10.369,0,0,1,3.39,8.1,10.6,10.6,0,0,1-6.33,9.99,15.709,15.709,0,0,1-6.554,1.317H969.91v8.447H963v-30.9Zm-6.825,16.329h6.262a6.406,6.406,0,0,0,4.335-1.373,4.69,4.69,0,0,0,1.588-3.739,4.812,4.812,0,0,0-1.441-3.705,5.946,5.946,0,0,0-4.189-1.34H969.91Z" transform="translate(-741.557 -420.505)" fill="#fff"/>
        <path id="Tracé_57" data-name="Tracé 57" d="M1023.5,421.158v6.262h-10.564v24.64h-6.87V427.42H995.5v-6.262Z" transform="translate(-744.174 -420.505)" fill="#fff"/>
        <path id="Tracé_58" data-name="Tracé 58" d="M1038.549,421.158v30.9h-6.96v-30.9Z" transform="translate(-746.68 -420.505)" fill="#fff"/>
        <path id="Tracé_59" data-name="Tracé 59" d="M1070.473,429.735a12.288,12.288,0,0,0-8.379-2.95,9.318,9.318,0,0,0-9.888,9.775,9.311,9.311,0,0,0,9.8,9.776,12.607,12.607,0,0,0,8.986-3.514l3.92,4.843a18.641,18.641,0,0,1-13.288,5,17.8,17.8,0,0,1-8.469-1.96,14.035,14.035,0,0,1-5.756-5.609,16.882,16.882,0,0,1-2.06-8.446,16.6,16.6,0,0,1,1.194-6.284,15.068,15.068,0,0,1,8.75-8.626,19.017,19.017,0,0,1,7.083-1.284,17.379,17.379,0,0,1,11.937,4.257Z" transform="translate(-747.635 -420.456)" fill="#fff"/>
      </g>
    </g>
    <g id="mo" transform="translate(859.424 274.291)">
      <g id="MO-2">
        <g id="fibre">
          <path id="Ligne" d="M921.9,406.687l-2.289-5.11L989.616,370.2l2.291,5.11Z" transform="translate(-789.578 -216.331)" fill="#101041"/>
          <path id="Ligne-2" data-name="Ligne" d="M961.289,376.2l-.8-1.685,8.875-4.243.8,1.685Z" transform="translate(-764.876 -216.291)" fill="#ff5d41"/>
          <path id="Ligne_-_Contour" data-name="Ligne - Contour" d="M960.935,377.2l-1.447-3.039,10.228-4.89,1.447,3.039Zm.551-2.332.157.33,7.522-3.6-.157-.33Z" transform="translate(-764.876 -216.291)" fill="#ff5d41"/>
          <path id="Tracé_17" data-name="Tracé 17" d="M885.924,462.38l-2.362-1.5c-6.9-4.388-41.424-28.463-44.471-71.712-1.765-25,7.245-48.7,26.768-70.428,20.667-23.01,47.28-31.192,58.643-34.686a256.211,256.211,0,0,1,29.208-6.836c6.395-1.123,12.874-2.01,19.251-2.646l2.785-.278.555,5.572-2.785.278c-6.244.622-12.587,1.494-18.852,2.591a250.358,250.358,0,0,0-28.545,6.679c-10.9,3.35-36.47,11.212-56.1,33.069-18.47,20.564-27,42.868-25.348,66.3,2.857,40.563,35.4,63.241,41.893,67.38l2.362,1.5Z" transform="translate(-838.365 -274.291)" fill="#db0011"/>
          <g id="Ellipse" transform="translate(0 30.611)">
            <circle id="Ellipse-2" data-name="Ellipse" cx="76.513" cy="76.513" r="76.513" transform="translate(5.599 5.599)" fill="none"/>
            <path id="Ellipse-3" data-name="Ellipse" d="M920.668,293.372a82.112,82.112,0,1,1-82.111,82.114v0A82.2,82.2,0,0,1,920.668,293.372Zm0,158.624a76.513,76.513,0,1,0-76.513-76.513h0A76.6,76.6,0,0,0,920.668,452Z" transform="translate(-838.557 -293.372)" fill="#101041"/>
          </g>
          <g id="Ellipse-4" data-name="Ellipse" transform="translate(7.219 32.29)">
            <circle id="Ellipse-5" data-name="Ellipse" cx="78.846" cy="78.846" r="78.846" transform="translate(5.599 5.599)" fill="none"/>
            <path id="Ellipse-6" data-name="Ellipse" d="M927.5,294.418a84.445,84.445,0,1,1-84.443,84.447v0A84.546,84.546,0,0,1,927.5,294.418Zm0,163.289a78.846,78.846,0,1,0-78.846-78.846h0A78.931,78.931,0,0,0,927.5,457.707Z" transform="translate(-843.057 -294.418)" fill="#101041"/>
          </g>
          <g id="Ellipse-7" data-name="Ellipse" transform="translate(12.122 20.62)">
            <circle id="Ellipse-8" data-name="Ellipse" cx="77.445" cy="77.445" r="77.445" transform="translate(5.599 5.599)" fill="none"/>
            <path id="Ellipse-9" data-name="Ellipse" d="M929.157,287.144a83.044,83.044,0,1,1-83.045,83.044h0A83.139,83.139,0,0,1,929.157,287.144Zm0,160.492a77.445,77.445,0,1,0-77.447-77.447,77.445,77.445,0,0,0,77.447,77.447Z" transform="translate(-846.113 -287.144)" fill="#db0011"/>
          </g>
          <g id="Ellipse-10" data-name="Ellipse" transform="translate(6.48 27.66)">
            <circle id="Ellipse-11" data-name="Ellipse" cx="76.98" cy="76.98" r="76.98" transform="translate(5.599 5.599)" fill="none"/>
            <path id="Ellipse-12" data-name="Ellipse" d="M925.174,291.532A82.578,82.578,0,1,1,842.6,374.11h0A82.673,82.673,0,0,1,925.174,291.532Zm0,159.558a76.98,76.98,0,1,0-76.98-76.98h0A77.065,77.065,0,0,0,925.174,451.09Z" transform="translate(-842.596 -291.532)" fill="#fff"/>
          </g>
          <path id="Ligne-3" data-name="Ligne" d="M921.23,277.913l-.18-1.858,9.786-.951.186,1.859Z" transform="translate(-788.707 -273.8)" fill="#ff5d41"/>
          <path id="Ligne_-_Contour-2" data-name="Ligne - Contour" d="M920.555,278.732l-.324-3.351,11.277-1.1.335,3.352Zm1.313-2,.035.365,8.3-.8-.037-.367Z" transform="translate(-788.707 -273.8)" fill="#ff5d41"/>
        </g>
        <g id="M" transform="translate(38.336 61.12)">
          <path id="M_-_Contour" data-name="M - Contour" d="M862.953,312.889h24.31l26.2,42.318,25.924-42.318h23.83v96.185H941.007V346.563h-.14L918.9,382.618H907.119l-21.96-36.055h-.14v62.514H862.953Z" transform="translate(-862.151 -312.087)" fill="#fff"/>
          <path id="M_-_Contour_-_Contour" data-name="M - Contour - Contour" d="M862.453,312.389h25.088l25.917,41.864L939.1,312.389h24.61v97.185H940.507V348.116l-21.323,35H906.838l-21.318-35v61.461H862.453Zm24.531,1H863.453v95.188H884.52V346.063h.92l21.96,36.055h11.222l21.964-36.055h.921v62.511h21.208V313.389h-23.05l-26.2,42.772Z" transform="translate(-862.151 -312.087)" fill="#101041"/>
          <path id="Tracé_61" data-name="Tracé 61" d="M886.124,410.182H862.453V312.389h25.56L913.76,353.98l25.478-41.591h25.08v97.789H940.508V349.495l-20.854,34.227H906.97l-.233-.385L886.124,349.5Zm-22.067-1.6H884.52V346.063h1.253l.374.387,21.727,35.668h10.879l21.966-36.055h1.255l.14.8v61.709h20.6V313.993H940.137l-26.371,43.045-26.647-43.045H864.057Z" transform="translate(-862.453 -312.389)" fill="#101041"/>
          <path id="Tracé_61_-_Contour" data-name="Tracé 61 - Contour" d="M886.624,410.682H861.953V311.889h26.338l25.467,41.138,25.2-41.138h25.86v98.789H940.008v-59.4l-20.073,32.946H906.688l-.379-.626-19.686-32.318Zm-23.671-1h22.671V347.714l21.628,35.508h12.121l21.635-35.509v61.965h22.809V312.889h-24.3l-25.755,42.045-26.028-42.045H862.953Zm22.067-.6H863.557V313.493H887.4l26.367,42.591,26.093-42.591h23.356v95.581h-21.6V346.908l-.06-.345H941l-21.966,36.055H907.593l-21.844-35.861-.188-.194h-.541Zm-20.463-1H884.02V345.563h1.965l.56.579.029.047,21.581,35.428h10.317l21.966-36.055h1.956l.219,1.259v61.252h19.6V314.493h-21.8l-26.649,43.5-26.928-43.5H864.557Z" transform="translate(-862.453 -312.389)" fill="#101041"/>
        </g>
      </g>
    </g>
  </g>
</svg>
